M48
; DRILL file {KiCad 9.0.7-9.0.7~ubuntu24.04.1} date 2026-01-23T10:08:47-0700
; FORMAT={-:-/ absolute / metric / decimal}
; #@! TF.CreationDate,2026-01-23T10:08:47-07:00
; #@! TF.GenerationSoftware,Kicad,Pcbnew,9.0.7-9.0.7~ubuntu24.04.1
; #@! TF.FileFunction,MixedPlating,1,4
FMAT,2
METRIC
; #@! TA.AperFunction,Plated,PTH,ViaDrill
T1C0.300
; #@! TA.AperFunction,Plated,PTH,ComponentDrill
T2C0.600
; #@! TA.AperFunction,Plated,PTH,ComponentDrill
T3C1.016
; #@! TA.AperFunction,NonPlated,NPTH,ComponentDrill
T4C0.650
; #@! TA.AperFunction,NonPlated,NPTH,ComponentDrill
T5C3.100
%
G90
G05
T1
X0.635Y131.683
X0.635Y70.223
X0.635Y8.763
X0.952Y130.857
X0.952Y69.397
X0.952Y7.938
X1.587Y133.715
X1.587Y72.255
X1.587Y10.795
X2.54Y133.715
X2.54Y72.255
X2.54Y10.795
X2.565Y139.201
X2.565Y77.741
X2.565Y16.281
X2.794Y142.605
X2.794Y81.145
X2.794Y19.685
X3.175Y174.101
X3.175Y112.641
X3.175Y51.181
X3.492Y133.715
X3.492Y72.255
X3.492Y10.795
X3.81Y154.352
X3.81Y152.384
X3.81Y148.447
X3.81Y92.892
X3.81Y90.924
X3.81Y86.987
X3.81Y31.432
X3.81Y29.464
X3.81Y25.527
X3.886Y146.009
X3.886Y84.549
X3.886Y23.089
X4.445Y174.101
X4.445Y171.815
X4.445Y170.545
X4.445Y161.02
X4.445Y158.48
X4.445Y150.542
X4.445Y112.641
X4.445Y110.355
X4.445Y109.085
X4.445Y99.56
X4.445Y97.02
X4.445Y89.082
X4.445Y51.181
X4.445Y48.895
X4.445Y47.625
X4.445Y38.1
X4.445Y35.56
X4.445Y27.622
X5.08Y161.655
X5.08Y151.495
X5.08Y100.195
X5.08Y90.035
X5.08Y38.735
X5.08Y28.575
X5.207Y127.873
X5.207Y66.413
X5.207Y4.953
X5.334Y149.844
X5.334Y88.384
X5.334Y26.924
X5.397Y157.21
X5.397Y95.75
X5.397Y34.29
X5.69Y136.915
X5.69Y75.455
X5.69Y13.995
X5.703Y125.435
X5.703Y63.975
X5.703Y2.515
X5.715Y174.101
X5.715Y156.257
X5.715Y139.303
X5.715Y112.641
X5.715Y94.797
X5.715Y77.843
X5.715Y51.181
X5.715Y33.337
X5.715Y16.383
X6.032Y153.718
X6.032Y141.335
X6.032Y127.365
X6.032Y126.095
X6.032Y92.257
X6.032Y79.875
X6.032Y65.905
X6.032Y64.635
X6.032Y30.797
X6.032Y18.415
X6.032Y4.445
X6.032Y3.175
X6.096Y146.415
X6.096Y84.955
X6.096Y23.495
X6.223Y157.083
X6.223Y95.623
X6.223Y34.163
X6.35Y157.845
X6.35Y134.032
X6.35Y96.385
X6.35Y72.572
X6.35Y34.925
X6.35Y11.112
X6.667Y154.67
X6.667Y93.21
X6.667Y31.75
X6.731Y129.778
X6.731Y68.318
X6.731Y6.858
X6.833Y146.455
X6.833Y84.995
X6.833Y23.535
X6.985Y174.101
X6.985Y155.94
X6.985Y112.641
X6.985Y94.48
X6.985Y51.181
X6.985Y33.02
X7.366Y153.4
X7.366Y133.207
X7.366Y91.94
X7.366Y71.747
X7.366Y30.48
X7.366Y10.287
X7.62Y156.575
X7.62Y144.637
X7.62Y141.335
X7.62Y95.115
X7.62Y83.177
X7.62Y79.875
X7.62Y33.655
X7.62Y21.717
X7.62Y18.415
X8.103Y151.495
X8.103Y90.035
X8.103Y28.575
X8.255Y174.101
X8.255Y170.862
X8.255Y168.957
X8.255Y157.21
X8.255Y145.145
X8.255Y133.08
X8.255Y112.641
X8.255Y109.402
X8.255Y107.497
X8.255Y95.75
X8.255Y83.685
X8.255Y71.62
X8.255Y51.181
X8.255Y47.942
X8.255Y46.038
X8.255Y34.29
X8.255Y22.225
X8.255Y10.16
X8.572Y147.05
X8.572Y85.59
X8.572Y24.13
X8.89Y156.575
X8.89Y155.305
X8.89Y95.115
X8.89Y93.845
X8.89Y33.655
X8.89Y32.385
X9.017Y148.955
X9.017Y87.495
X9.017Y26.035
X9.207Y153.4
X9.207Y91.94
X9.207Y30.48
X9.271Y132.953
X9.271Y71.493
X9.271Y10.033
X9.525Y174.101
X9.525Y112.641
X9.525Y51.181
X9.747Y131.327
X9.747Y69.867
X9.747Y8.407
X9.842Y126.095
X9.842Y64.635
X9.842Y3.175
X10.127Y144.035
X10.127Y82.575
X10.127Y21.115
X10.668Y148.955
X10.668Y87.495
X10.668Y26.035
X10.7Y146.828
X10.7Y85.368
X10.7Y23.908
X10.795Y174.101
X10.795Y112.641
X10.795Y51.181
X11.049Y167.497
X11.049Y161.655
X11.049Y106.037
X11.049Y100.195
X11.049Y44.577
X11.049Y38.735
X11.176Y127.873
X11.176Y66.413
X11.176Y4.953
X11.188Y146.275
X11.188Y84.815
X11.188Y23.355
X11.43Y134.223
X11.43Y132.127
X11.43Y72.763
X11.43Y70.667
X11.43Y11.303
X11.43Y9.207
X12.065Y174.101
X12.065Y153.4
X12.065Y112.641
X12.065Y91.94
X12.065Y51.181
X12.065Y30.48
X12.192Y167.497
X12.192Y161.655
X12.192Y148.955
X12.192Y106.037
X12.192Y100.195
X12.192Y87.495
X12.192Y44.577
X12.192Y38.735
X12.192Y26.035
X12.217Y147.507
X12.217Y86.047
X12.217Y24.587
X12.347Y127.888
X12.347Y66.428
X12.347Y4.968
X12.383Y146.732
X12.383Y85.272
X12.383Y23.812
X12.573Y138.922
X12.573Y77.462
X12.573Y16.002
X12.827Y136.509
X12.827Y75.049
X12.827Y13.589
X13.018Y134.985
X13.018Y126.095
X13.018Y73.525
X13.018Y64.635
X13.018Y12.065
X13.018Y3.175
X13.335Y174.101
X13.335Y167.497
X13.335Y161.655
X13.335Y112.641
X13.335Y106.037
X13.335Y100.195
X13.335Y51.181
X13.335Y44.577
X13.335Y38.735
X13.486Y131.467
X13.486Y70.007
X13.486Y8.547
X13.843Y148.955
X13.843Y87.495
X13.843Y26.035
X13.97Y143.875
X13.97Y136.763
X13.97Y133.08
X13.97Y82.415
X13.97Y75.303
X13.97Y71.62
X13.97Y20.955
X13.97Y13.843
X13.97Y10.16
X14.224Y137.525
X14.224Y76.065
X14.224Y14.605
X14.287Y153.4
X14.287Y145.78
X14.287Y91.94
X14.287Y84.32
X14.287Y30.48
X14.287Y22.86
X14.32Y139.43
X14.32Y77.97
X14.32Y16.51
X14.346Y140.231
X14.346Y78.771
X14.346Y17.311
X14.605Y174.101
X14.605Y158.48
X14.605Y134.35
X14.605Y112.641
X14.605Y97.02
X14.605Y72.89
X14.605Y51.181
X14.605Y35.56
X14.605Y11.43
X14.732Y133.08
X14.732Y71.62
X14.732Y10.16
X14.782Y151.388
X14.782Y89.928
X14.782Y28.468
X14.922Y143.875
X14.922Y82.415
X14.922Y20.955
X15.24Y167.688
X15.24Y156.575
X15.24Y153.4
X15.24Y133.715
X15.24Y132.445
X15.24Y106.227
X15.24Y95.115
X15.24Y91.94
X15.24Y72.255
X15.24Y70.985
X15.24Y44.767
X15.24Y33.655
X15.24Y30.48
X15.24Y10.795
X15.24Y9.525
X15.494Y148.955
X15.494Y87.495
X15.494Y26.035
X15.875Y174.101
X15.875Y168.259
X15.875Y166.1
X15.875Y160.385
X15.875Y157.845
X15.875Y141.653
X15.875Y131.81
X15.875Y112.641
X15.875Y106.799
X15.875Y104.64
X15.875Y98.925
X15.875Y96.385
X15.875Y80.192
X15.875Y70.35
X15.875Y51.181
X15.875Y45.339
X15.875Y43.18
X15.875Y37.465
X15.875Y34.925
X15.875Y18.732
X15.875Y8.89
X16.51Y158.48
X16.51Y153.4
X16.51Y144.51
X16.51Y143.558
X16.51Y97.02
X16.51Y91.94
X16.51Y83.05
X16.51Y82.097
X16.51Y35.56
X16.51Y30.48
X16.51Y21.59
X16.51Y20.637
X16.637Y129.651
X16.637Y68.191
X16.637Y6.731
X17.145Y174.101
X17.145Y159.115
X17.145Y157.21
X17.145Y145.78
X17.145Y112.641
X17.145Y97.655
X17.145Y95.75
X17.145Y84.32
X17.145Y51.181
X17.145Y36.195
X17.145Y34.29
X17.145Y22.86
X17.78Y166.735
X17.78Y161.02
X17.78Y105.275
X17.78Y99.56
X17.78Y43.815
X17.78Y38.1
X18.415Y174.101
X18.415Y169.275
X18.415Y167.37
X18.415Y166.1
X18.415Y160.385
X18.415Y112.641
X18.415Y107.815
X18.415Y105.91
X18.415Y104.64
X18.415Y98.925
X18.415Y51.181
X18.415Y46.355
X18.415Y44.45
X18.415Y43.18
X18.415Y37.465
X19.177Y136.636
X19.177Y75.176
X19.177Y13.716
X19.685Y174.101
X19.685Y144.192
X19.685Y134.032
X19.685Y130.705
X19.685Y129.905
X19.685Y112.641
X19.685Y82.733
X19.685Y72.572
X19.685Y69.245
X19.685Y68.445
X19.685Y51.181
X19.685Y21.272
X19.685Y11.112
X19.685Y7.785
X19.685Y6.985
X20.32Y138.16
X20.32Y76.7
X20.32Y15.24
X20.955Y158.48
X20.955Y97.02
X20.955Y35.56
X23.995Y131.683
X23.995Y70.223
X23.995Y8.763
X24.312Y130.857
X24.312Y69.397
X24.312Y7.938
X24.947Y133.715
X24.947Y72.255
X24.947Y10.795
X25.9Y133.715
X25.9Y72.255
X25.9Y10.795
X25.925Y139.201
X25.925Y77.741
X25.925Y16.281
X26.154Y142.605
X26.154Y81.145
X26.154Y19.685
X26.535Y174.101
X26.535Y112.641
X26.535Y51.181
X26.852Y133.715
X26.852Y72.255
X26.852Y10.795
X27.17Y154.352
X27.17Y152.384
X27.17Y148.447
X27.17Y92.892
X27.17Y90.924
X27.17Y86.987
X27.17Y31.432
X27.17Y29.464
X27.17Y25.527
X27.246Y146.009
X27.246Y84.549
X27.246Y23.089
X27.805Y174.101
X27.805Y171.815
X27.805Y170.545
X27.805Y161.02
X27.805Y158.48
X27.805Y150.542
X27.805Y112.641
X27.805Y110.355
X27.805Y109.085
X27.805Y99.56
X27.805Y97.02
X27.805Y89.082
X27.805Y51.181
X27.805Y48.895
X27.805Y47.625
X27.805Y38.1
X27.805Y35.56
X27.805Y27.622
X28.44Y161.655
X28.44Y151.495
X28.44Y100.195
X28.44Y90.035
X28.44Y38.735
X28.44Y28.575
X28.567Y127.873
X28.567Y66.413
X28.567Y4.953
X28.694Y149.844
X28.694Y88.384
X28.694Y26.924
X28.758Y157.21
X28.758Y95.75
X28.758Y34.29
X29.05Y136.915
X29.05Y75.455
X29.05Y13.995
X29.063Y125.435
X29.063Y63.975
X29.063Y2.515
X29.075Y174.101
X29.075Y156.257
X29.075Y139.303
X29.075Y112.641
X29.075Y94.797
X29.075Y77.843
X29.075Y51.181
X29.075Y33.337
X29.075Y16.383
X29.392Y153.718
X29.392Y141.335
X29.392Y127.365
X29.392Y126.095
X29.392Y92.257
X29.392Y79.875
X29.392Y65.905
X29.392Y64.635
X29.392Y30.797
X29.392Y18.415
X29.392Y4.445
X29.392Y3.175
X29.456Y146.415
X29.456Y84.955
X29.456Y23.495
X29.583Y157.083
X29.583Y95.623
X29.583Y34.163
X29.71Y157.845
X29.71Y134.032
X29.71Y96.385
X29.71Y72.572
X29.71Y34.925
X29.71Y11.112
X30.027Y154.67
X30.027Y93.21
X30.027Y31.75
X30.091Y129.778
X30.091Y68.318
X30.091Y6.858
X30.193Y146.455
X30.193Y84.995
X30.193Y23.535
X30.345Y174.101
X30.345Y155.94
X30.345Y112.641
X30.345Y94.48
X30.345Y51.181
X30.345Y33.02
X30.726Y153.4
X30.726Y133.207
X30.726Y91.94
X30.726Y71.747
X30.726Y30.48
X30.726Y10.287
X30.98Y156.575
X30.98Y144.637
X30.98Y141.335
X30.98Y95.115
X30.98Y83.177
X30.98Y79.875
X30.98Y33.655
X30.98Y21.717
X30.98Y18.415
X31.463Y151.495
X31.463Y90.035
X31.463Y28.575
X31.615Y174.101
X31.615Y170.862
X31.615Y168.957
X31.615Y157.21
X31.615Y145.145
X31.615Y133.08
X31.615Y112.641
X31.615Y109.402
X31.615Y107.497
X31.615Y95.75
X31.615Y83.685
X31.615Y71.62
X31.615Y51.181
X31.615Y47.942
X31.615Y46.038
X31.615Y34.29
X31.615Y22.225
X31.615Y10.16
X31.932Y147.05
X31.932Y85.59
X31.932Y24.13
X32.25Y156.575
X32.25Y155.305
X32.25Y95.115
X32.25Y93.845
X32.25Y33.655
X32.25Y32.385
X32.377Y148.955
X32.377Y87.495
X32.377Y26.035
X32.567Y153.4
X32.567Y91.94
X32.567Y30.48
X32.631Y132.953
X32.631Y71.493
X32.631Y10.033
X32.885Y174.101
X32.885Y112.641
X32.885Y51.181
X33.107Y131.327
X33.107Y69.867
X33.107Y8.407
X33.203Y126.095
X33.203Y64.635
X33.203Y3.175
X33.487Y144.035
X33.487Y82.575
X33.487Y21.115
X34.028Y148.955
X34.028Y87.495
X34.028Y26.035
X34.06Y146.828
X34.06Y85.368
X34.06Y23.908
X34.155Y174.101
X34.155Y112.641
X34.155Y51.181
X34.409Y167.497
X34.409Y161.655
X34.409Y106.037
X34.409Y100.195
X34.409Y44.577
X34.409Y38.735
X34.536Y127.873
X34.536Y66.413
X34.536Y4.953
X34.548Y146.275
X34.548Y84.815
X34.548Y23.355
X34.79Y134.223
X34.79Y132.127
X34.79Y72.763
X34.79Y70.667
X34.79Y11.303
X34.79Y9.207
X35.425Y174.101
X35.425Y153.4
X35.425Y112.641
X35.425Y91.94
X35.425Y51.181
X35.425Y30.48
X35.552Y167.497
X35.552Y161.655
X35.552Y148.955
X35.552Y106.037
X35.552Y100.195
X35.552Y87.495
X35.552Y44.577
X35.552Y38.735
X35.552Y26.035
X35.577Y147.507
X35.577Y86.047
X35.577Y24.587
X35.707Y127.888
X35.707Y66.428
X35.707Y4.968
X35.742Y146.732
X35.742Y85.272
X35.742Y23.812
X35.933Y138.922
X35.933Y77.462
X35.933Y16.002
X36.187Y136.509
X36.187Y75.049
X36.187Y13.589
X36.377Y134.985
X36.377Y126.095
X36.377Y73.525
X36.377Y64.635
X36.377Y12.065
X36.377Y3.175
X36.695Y174.101
X36.695Y167.497
X36.695Y161.655
X36.695Y112.641
X36.695Y106.037
X36.695Y100.195
X36.695Y51.181
X36.695Y44.577
X36.695Y38.735
X36.846Y131.467
X36.846Y70.007
X36.846Y8.547
X37.203Y148.955
X37.203Y87.495
X37.203Y26.035
X37.33Y143.875
X37.33Y136.763
X37.33Y133.08
X37.33Y82.415
X37.33Y75.303
X37.33Y71.62
X37.33Y20.955
X37.33Y13.843
X37.33Y10.16
X37.584Y137.525
X37.584Y76.065
X37.584Y14.605
X37.648Y153.4
X37.648Y145.78
X37.648Y91.94
X37.648Y84.32
X37.648Y30.48
X37.648Y22.86
X37.68Y139.43
X37.68Y77.97
X37.68Y16.51
X37.706Y140.231
X37.706Y78.771
X37.706Y17.311
X37.965Y174.101
X37.965Y158.48
X37.965Y134.35
X37.965Y112.641
X37.965Y97.02
X37.965Y72.89
X37.965Y51.181
X37.965Y35.56
X37.965Y11.43
X38.092Y133.08
X38.092Y71.62
X38.092Y10.16
X38.142Y151.388
X38.142Y89.928
X38.142Y28.468
X38.282Y143.875
X38.282Y82.415
X38.282Y20.955
X38.6Y167.688
X38.6Y156.575
X38.6Y153.4
X38.6Y133.715
X38.6Y132.445
X38.6Y106.227
X38.6Y95.115
X38.6Y91.94
X38.6Y72.255
X38.6Y70.985
X38.6Y44.767
X38.6Y33.655
X38.6Y30.48
X38.6Y10.795
X38.6Y9.525
X38.854Y148.955
X38.854Y87.495
X38.854Y26.035
X39.235Y174.101
X39.235Y168.259
X39.235Y166.1
X39.235Y160.385
X39.235Y157.845
X39.235Y141.653
X39.235Y131.81
X39.235Y112.641
X39.235Y106.799
X39.235Y104.64
X39.235Y98.925
X39.235Y96.385
X39.235Y80.192
X39.235Y70.35
X39.235Y51.181
X39.235Y45.339
X39.235Y43.18
X39.235Y37.465
X39.235Y34.925
X39.235Y18.732
X39.235Y8.89
X39.87Y158.48
X39.87Y153.4
X39.87Y144.51
X39.87Y143.558
X39.87Y97.02
X39.87Y91.94
X39.87Y83.05
X39.87Y82.097
X39.87Y35.56
X39.87Y30.48
X39.87Y21.59
X39.87Y20.637
X39.997Y129.651
X39.997Y68.191
X39.997Y6.731
X40.505Y174.101
X40.505Y159.115
X40.505Y157.21
X40.505Y145.78
X40.505Y112.641
X40.505Y97.655
X40.505Y95.75
X40.505Y84.32
X40.505Y51.181
X40.505Y36.195
X40.505Y34.29
X40.505Y22.86
X41.14Y166.735
X41.14Y161.02
X41.14Y105.275
X41.14Y99.56
X41.14Y43.815
X41.14Y38.1
X41.775Y174.101
X41.775Y169.275
X41.775Y167.37
X41.775Y166.1
X41.775Y160.385
X41.775Y112.641
X41.775Y107.815
X41.775Y105.91
X41.775Y104.64
X41.775Y98.925
X41.775Y51.181
X41.775Y46.355
X41.775Y44.45
X41.775Y43.18
X41.775Y37.465
X42.537Y136.636
X42.537Y75.176
X42.537Y13.716
X43.045Y174.101
X43.045Y144.192
X43.045Y134.032
X43.045Y130.705
X43.045Y129.905
X43.045Y112.641
X43.045Y82.733
X43.045Y72.572
X43.045Y69.245
X43.045Y68.445
X43.045Y51.181
X43.045Y21.272
X43.045Y11.112
X43.045Y7.785
X43.045Y6.985
X43.68Y138.16
X43.68Y76.7
X43.68Y15.24
X44.315Y158.48
X44.315Y97.02
X44.315Y35.56
X47.355Y131.683
X47.355Y70.223
X47.355Y8.763
X47.672Y130.857
X47.672Y69.397
X47.672Y7.938
X48.307Y133.715
X48.307Y72.255
X48.307Y10.795
X49.26Y133.715
X49.26Y72.255
X49.26Y10.795
X49.285Y139.201
X49.285Y77.741
X49.285Y16.281
X49.514Y142.605
X49.514Y81.145
X49.514Y19.685
X49.895Y174.101
X49.895Y112.641
X49.895Y51.181
X50.212Y133.715
X50.212Y72.255
X50.212Y10.795
X50.53Y154.352
X50.53Y152.384
X50.53Y148.447
X50.53Y92.892
X50.53Y90.924
X50.53Y86.987
X50.53Y31.432
X50.53Y29.464
X50.53Y25.527
X50.606Y146.009
X50.606Y84.549
X50.606Y23.089
X51.165Y174.101
X51.165Y171.815
X51.165Y170.545
X51.165Y161.02
X51.165Y158.48
X51.165Y150.542
X51.165Y112.641
X51.165Y110.355
X51.165Y109.085
X51.165Y99.56
X51.165Y97.02
X51.165Y89.082
X51.165Y51.181
X51.165Y48.895
X51.165Y47.625
X51.165Y38.1
X51.165Y35.56
X51.165Y27.622
X51.8Y161.655
X51.8Y151.495
X51.8Y100.195
X51.8Y90.035
X51.8Y38.735
X51.8Y28.575
X51.927Y127.873
X51.927Y66.413
X51.927Y4.953
X52.054Y149.844
X52.054Y88.384
X52.054Y26.924
X52.117Y157.21
X52.117Y95.75
X52.117Y34.29
X52.41Y136.915
X52.41Y75.455
X52.41Y13.995
X52.423Y125.435
X52.423Y63.975
X52.423Y2.515
X52.435Y174.101
X52.435Y156.257
X52.435Y139.303
X52.435Y112.641
X52.435Y94.797
X52.435Y77.843
X52.435Y51.181
X52.435Y33.337
X52.435Y16.383
X52.752Y153.718
X52.752Y141.335
X52.752Y127.365
X52.752Y126.095
X52.752Y92.257
X52.752Y79.875
X52.752Y65.905
X52.752Y64.635
X52.752Y30.797
X52.752Y18.415
X52.752Y4.445
X52.752Y3.175
X52.816Y146.415
X52.816Y84.955
X52.816Y23.495
X52.943Y157.083
X52.943Y95.623
X52.943Y34.163
X53.07Y157.845
X53.07Y134.032
X53.07Y96.385
X53.07Y72.572
X53.07Y34.925
X53.07Y11.112
X53.387Y154.67
X53.387Y93.21
X53.387Y31.75
X53.451Y129.778
X53.451Y68.318
X53.451Y6.858
X53.553Y146.455
X53.553Y84.995
X53.553Y23.535
X53.705Y174.101
X53.705Y155.94
X53.705Y112.641
X53.705Y94.48
X53.705Y51.181
X53.705Y33.02
X54.086Y153.4
X54.086Y133.207
X54.086Y91.94
X54.086Y71.747
X54.086Y30.48
X54.086Y10.287
X54.34Y156.575
X54.34Y144.637
X54.34Y141.335
X54.34Y95.115
X54.34Y83.177
X54.34Y79.875
X54.34Y33.655
X54.34Y21.717
X54.34Y18.415
X54.823Y151.495
X54.823Y90.035
X54.823Y28.575
X54.975Y174.101
X54.975Y170.862
X54.975Y168.957
X54.975Y157.21
X54.975Y145.145
X54.975Y133.08
X54.975Y112.641
X54.975Y109.402
X54.975Y107.497
X54.975Y95.75
X54.975Y83.685
X54.975Y71.62
X54.975Y51.181
X54.975Y47.942
X54.975Y46.038
X54.975Y34.29
X54.975Y22.225
X54.975Y10.16
X55.292Y147.05
X55.292Y85.59
X55.292Y24.13
X55.61Y156.575
X55.61Y155.305
X55.61Y95.115
X55.61Y93.845
X55.61Y33.655
X55.61Y32.385
X55.737Y148.955
X55.737Y87.495
X55.737Y26.035
X55.927Y153.4
X55.927Y91.94
X55.927Y30.48
X55.991Y132.953
X55.991Y71.493
X55.991Y10.033
X56.245Y174.101
X56.245Y112.641
X56.245Y51.181
X56.467Y131.327
X56.467Y69.867
X56.467Y8.407
X56.562Y126.095
X56.562Y64.635
X56.562Y3.175
X56.847Y144.035
X56.847Y82.575
X56.847Y21.115
X57.388Y148.955
X57.388Y87.495
X57.388Y26.035
X57.42Y146.828
X57.42Y85.368
X57.42Y23.908
X57.515Y174.101
X57.515Y112.641
X57.515Y51.181
X57.769Y167.497
X57.769Y161.655
X57.769Y106.037
X57.769Y100.195
X57.769Y44.577
X57.769Y38.735
X57.896Y127.873
X57.896Y66.413
X57.896Y4.953
X57.908Y146.275
X57.908Y84.815
X57.908Y23.355
X58.15Y134.223
X58.15Y132.127
X58.15Y72.763
X58.15Y70.667
X58.15Y11.303
X58.15Y9.207
X58.785Y174.101
X58.785Y153.4
X58.785Y112.641
X58.785Y91.94
X58.785Y51.181
X58.785Y30.48
X58.912Y167.497
X58.912Y161.655
X58.912Y148.955
X58.912Y106.037
X58.912Y100.195
X58.912Y87.495
X58.912Y44.577
X58.912Y38.735
X58.912Y26.035
X58.937Y147.507
X58.937Y86.047
X58.937Y24.587
X59.067Y127.888
X59.067Y66.428
X59.067Y4.968
X59.102Y146.732
X59.102Y85.272
X59.102Y23.812
X59.293Y138.922
X59.293Y77.462
X59.293Y16.002
X59.547Y136.509
X59.547Y75.049
X59.547Y13.589
X59.737Y134.985
X59.737Y126.095
X59.737Y73.525
X59.737Y64.635
X59.737Y12.065
X59.737Y3.175
X60.055Y174.101
X60.055Y167.497
X60.055Y161.655
X60.055Y112.641
X60.055Y106.037
X60.055Y100.195
X60.055Y51.181
X60.055Y44.577
X60.055Y38.735
X60.206Y131.467
X60.206Y70.007
X60.206Y8.547
X60.563Y148.955
X60.563Y87.495
X60.563Y26.035
X60.69Y143.875
X60.69Y136.763
X60.69Y133.08
X60.69Y82.415
X60.69Y75.303
X60.69Y71.62
X60.69Y20.955
X60.69Y13.843
X60.69Y10.16
X60.944Y137.525
X60.944Y76.065
X60.944Y14.605
X61.008Y153.4
X61.008Y145.78
X61.008Y91.94
X61.008Y84.32
X61.008Y30.48
X61.008Y22.86
X61.04Y139.43
X61.04Y77.97
X61.04Y16.51
X61.066Y140.231
X61.066Y78.771
X61.066Y17.311
X61.325Y174.101
X61.325Y158.48
X61.325Y134.35
X61.325Y112.641
X61.325Y97.02
X61.325Y72.89
X61.325Y51.181
X61.325Y35.56
X61.325Y11.43
X61.452Y133.08
X61.452Y71.62
X61.452Y10.16
X61.502Y151.388
X61.502Y89.928
X61.502Y28.468
X61.642Y143.875
X61.642Y82.415
X61.642Y20.955
X61.96Y167.688
X61.96Y156.575
X61.96Y153.4
X61.96Y133.715
X61.96Y132.445
X61.96Y106.227
X61.96Y95.115
X61.96Y91.94
X61.96Y72.255
X61.96Y70.985
X61.96Y44.767
X61.96Y33.655
X61.96Y30.48
X61.96Y10.795
X61.96Y9.525
X62.214Y148.955
X62.214Y87.495
X62.214Y26.035
X62.595Y174.101
X62.595Y168.259
X62.595Y166.1
X62.595Y160.385
X62.595Y157.845
X62.595Y141.653
X62.595Y131.81
X62.595Y112.641
X62.595Y106.799
X62.595Y104.64
X62.595Y98.925
X62.595Y96.385
X62.595Y80.192
X62.595Y70.35
X62.595Y51.181
X62.595Y45.339
X62.595Y43.18
X62.595Y37.465
X62.595Y34.925
X62.595Y18.732
X62.595Y8.89
X63.23Y158.48
X63.23Y153.4
X63.23Y144.51
X63.23Y143.558
X63.23Y97.02
X63.23Y91.94
X63.23Y83.05
X63.23Y82.097
X63.23Y35.56
X63.23Y30.48
X63.23Y21.59
X63.23Y20.637
X63.357Y129.651
X63.357Y68.191
X63.357Y6.731
X63.865Y174.101
X63.865Y159.115
X63.865Y157.21
X63.865Y145.78
X63.865Y112.641
X63.865Y97.655
X63.865Y95.75
X63.865Y84.32
X63.865Y51.181
X63.865Y36.195
X63.865Y34.29
X63.865Y22.86
X64.5Y166.735
X64.5Y161.02
X64.5Y105.275
X64.5Y99.56
X64.5Y43.815
X64.5Y38.1
X65.135Y174.101
X65.135Y169.275
X65.135Y167.37
X65.135Y166.1
X65.135Y160.385
X65.135Y112.641
X65.135Y107.815
X65.135Y105.91
X65.135Y104.64
X65.135Y98.925
X65.135Y51.181
X65.135Y46.355
X65.135Y44.45
X65.135Y43.18
X65.135Y37.465
X65.897Y136.636
X65.897Y75.176
X65.897Y13.716
X66.405Y174.101
X66.405Y144.192
X66.405Y134.032
X66.405Y130.705
X66.405Y129.905
X66.405Y112.641
X66.405Y82.733
X66.405Y72.572
X66.405Y69.245
X66.405Y68.445
X66.405Y51.181
X66.405Y21.272
X66.405Y11.112
X66.405Y7.785
X66.405Y6.985
X67.04Y138.16
X67.04Y76.7
X67.04Y15.24
X67.675Y158.48
X67.675Y97.02
X67.675Y35.56
X70.715Y131.683
X70.715Y70.223
X70.715Y8.763
X71.032Y130.857
X71.032Y69.397
X71.032Y7.938
X71.667Y133.715
X71.667Y72.255
X71.667Y10.795
X72.62Y133.715
X72.62Y72.255
X72.62Y10.795
X72.645Y139.201
X72.645Y77.741
X72.645Y16.281
X72.874Y142.605
X72.874Y81.145
X72.874Y19.685
X73.255Y174.101
X73.255Y112.641
X73.255Y51.181
X73.572Y133.715
X73.572Y72.255
X73.572Y10.795
X73.89Y154.352
X73.89Y152.384
X73.89Y148.447
X73.89Y92.892
X73.89Y90.924
X73.89Y86.987
X73.89Y31.432
X73.89Y29.464
X73.89Y25.527
X73.966Y146.009
X73.966Y84.549
X73.966Y23.089
X74.525Y174.101
X74.525Y171.815
X74.525Y170.545
X74.525Y161.02
X74.525Y158.48
X74.525Y150.542
X74.525Y112.641
X74.525Y110.355
X74.525Y109.085
X74.525Y99.56
X74.525Y97.02
X74.525Y89.082
X74.525Y51.181
X74.525Y48.895
X74.525Y47.625
X74.525Y38.1
X74.525Y35.56
X74.525Y27.622
X75.16Y161.655
X75.16Y151.495
X75.16Y100.195
X75.16Y90.035
X75.16Y38.735
X75.16Y28.575
X75.287Y127.873
X75.287Y66.413
X75.287Y4.953
X75.414Y149.844
X75.414Y88.384
X75.414Y26.924
X75.477Y157.21
X75.477Y95.75
X75.477Y34.29
X75.77Y136.915
X75.77Y75.455
X75.77Y13.995
X75.783Y125.435
X75.783Y63.975
X75.783Y2.515
X75.795Y174.101
X75.795Y156.257
X75.795Y139.303
X75.795Y112.641
X75.795Y94.797
X75.795Y77.843
X75.795Y51.181
X75.795Y33.337
X75.795Y16.383
X76.112Y153.718
X76.112Y141.335
X76.112Y127.365
X76.112Y126.095
X76.112Y92.257
X76.112Y79.875
X76.112Y65.905
X76.112Y64.635
X76.112Y30.797
X76.112Y18.415
X76.112Y4.445
X76.112Y3.175
X76.176Y146.415
X76.176Y84.955
X76.176Y23.495
X76.303Y157.083
X76.303Y95.623
X76.303Y34.163
X76.43Y157.845
X76.43Y134.032
X76.43Y96.385
X76.43Y72.572
X76.43Y34.925
X76.43Y11.112
X76.748Y154.67
X76.748Y93.21
X76.748Y31.75
X76.811Y129.778
X76.811Y68.318
X76.811Y6.858
X76.913Y146.455
X76.913Y84.995
X76.913Y23.535
X77.065Y174.101
X77.065Y155.94
X77.065Y112.641
X77.065Y94.48
X77.065Y51.181
X77.065Y33.02
X77.446Y153.4
X77.446Y133.207
X77.446Y91.94
X77.446Y71.747
X77.446Y30.48
X77.446Y10.287
X77.7Y156.575
X77.7Y144.637
X77.7Y141.335
X77.7Y95.115
X77.7Y83.177
X77.7Y79.875
X77.7Y33.655
X77.7Y21.717
X77.7Y18.415
X78.183Y151.495
X78.183Y90.035
X78.183Y28.575
X78.335Y174.101
X78.335Y170.862
X78.335Y168.957
X78.335Y157.21
X78.335Y145.145
X78.335Y133.08
X78.335Y112.641
X78.335Y109.402
X78.335Y107.497
X78.335Y95.75
X78.335Y83.685
X78.335Y71.62
X78.335Y51.181
X78.335Y47.942
X78.335Y46.038
X78.335Y34.29
X78.335Y22.225
X78.335Y10.16
X78.653Y147.05
X78.653Y85.59
X78.653Y24.13
X78.97Y156.575
X78.97Y155.305
X78.97Y95.115
X78.97Y93.845
X78.97Y33.655
X78.97Y32.385
X79.097Y148.955
X79.097Y87.495
X79.097Y26.035
X79.287Y153.4
X79.287Y91.94
X79.287Y30.48
X79.351Y132.953
X79.351Y71.493
X79.351Y10.033
X79.605Y174.101
X79.605Y112.641
X79.605Y51.181
X79.827Y131.327
X79.827Y69.867
X79.827Y8.407
X79.922Y126.095
X79.922Y64.635
X79.922Y3.175
X80.207Y144.035
X80.207Y82.575
X80.207Y21.115
X80.748Y148.955
X80.748Y87.495
X80.748Y26.035
X80.78Y146.828
X80.78Y85.368
X80.78Y23.908
X80.875Y174.101
X80.875Y112.641
X80.875Y51.181
X81.129Y167.497
X81.129Y161.655
X81.129Y106.037
X81.129Y100.195
X81.129Y44.577
X81.129Y38.735
X81.256Y127.873
X81.256Y66.413
X81.256Y4.953
X81.268Y146.275
X81.268Y84.815
X81.268Y23.355
X81.51Y134.223
X81.51Y132.127
X81.51Y72.763
X81.51Y70.667
X81.51Y11.303
X81.51Y9.207
X82.145Y174.101
X82.145Y153.4
X82.145Y112.641
X82.145Y91.94
X82.145Y51.181
X82.145Y30.48
X82.272Y167.497
X82.272Y161.655
X82.272Y148.955
X82.272Y106.037
X82.272Y100.195
X82.272Y87.495
X82.272Y44.577
X82.272Y38.735
X82.272Y26.035
X82.297Y147.507
X82.297Y86.047
X82.297Y24.587
X82.427Y127.888
X82.427Y66.428
X82.427Y4.968
X82.462Y146.732
X82.462Y85.272
X82.462Y23.812
X82.653Y138.922
X82.653Y77.462
X82.653Y16.002
X82.907Y136.509
X82.907Y75.049
X82.907Y13.589
X83.097Y134.985
X83.097Y126.095
X83.097Y73.525
X83.097Y64.635
X83.097Y12.065
X83.097Y3.175
X83.415Y174.101
X83.415Y167.497
X83.415Y161.655
X83.415Y112.641
X83.415Y106.037
X83.415Y100.195
X83.415Y51.181
X83.415Y44.577
X83.415Y38.735
X83.566Y131.467
X83.566Y70.007
X83.566Y8.547
X83.923Y148.955
X83.923Y87.495
X83.923Y26.035
X84.05Y143.875
X84.05Y136.763
X84.05Y133.08
X84.05Y82.415
X84.05Y75.303
X84.05Y71.62
X84.05Y20.955
X84.05Y13.843
X84.05Y10.16
X84.304Y137.525
X84.304Y76.065
X84.304Y14.605
X84.367Y153.4
X84.367Y145.78
X84.367Y91.94
X84.367Y84.32
X84.367Y30.48
X84.367Y22.86
X84.4Y139.43
X84.4Y77.97
X84.4Y16.51
X84.426Y140.231
X84.426Y78.771
X84.426Y17.311
X84.685Y174.101
X84.685Y158.48
X84.685Y134.35
X84.685Y112.641
X84.685Y97.02
X84.685Y72.89
X84.685Y51.181
X84.685Y35.56
X84.685Y11.43
X84.812Y133.08
X84.812Y71.62
X84.812Y10.16
X84.862Y151.388
X84.862Y89.928
X84.862Y28.468
X85.002Y143.875
X85.002Y82.415
X85.002Y20.955
X85.32Y167.688
X85.32Y156.575
X85.32Y153.4
X85.32Y133.715
X85.32Y132.445
X85.32Y106.227
X85.32Y95.115
X85.32Y91.94
X85.32Y72.255
X85.32Y70.985
X85.32Y44.767
X85.32Y33.655
X85.32Y30.48
X85.32Y10.795
X85.32Y9.525
X85.574Y148.955
X85.574Y87.495
X85.574Y26.035
X85.955Y174.101
X85.955Y168.259
X85.955Y166.1
X85.955Y160.385
X85.955Y157.845
X85.955Y141.653
X85.955Y131.81
X85.955Y112.641
X85.955Y106.799
X85.955Y104.64
X85.955Y98.925
X85.955Y96.385
X85.955Y80.192
X85.955Y70.35
X85.955Y51.181
X85.955Y45.339
X85.955Y43.18
X85.955Y37.465
X85.955Y34.925
X85.955Y18.732
X85.955Y8.89
X86.59Y158.48
X86.59Y153.4
X86.59Y144.51
X86.59Y143.558
X86.59Y97.02
X86.59Y91.94
X86.59Y83.05
X86.59Y82.097
X86.59Y35.56
X86.59Y30.48
X86.59Y21.59
X86.59Y20.637
X86.717Y129.651
X86.717Y68.191
X86.717Y6.731
X87.225Y174.101
X87.225Y159.115
X87.225Y157.21
X87.225Y145.78
X87.225Y112.641
X87.225Y97.655
X87.225Y95.75
X87.225Y84.32
X87.225Y51.181
X87.225Y36.195
X87.225Y34.29
X87.225Y22.86
X87.86Y166.735
X87.86Y161.02
X87.86Y105.275
X87.86Y99.56
X87.86Y43.815
X87.86Y38.1
X88.495Y174.101
X88.495Y169.275
X88.495Y167.37
X88.495Y166.1
X88.495Y160.385
X88.495Y112.641
X88.495Y107.815
X88.495Y105.91
X88.495Y104.64
X88.495Y98.925
X88.495Y51.181
X88.495Y46.355
X88.495Y44.45
X88.495Y43.18
X88.495Y37.465
X89.257Y136.636
X89.257Y75.176
X89.257Y13.716
X89.765Y174.101
X89.765Y144.192
X89.765Y134.032
X89.765Y130.705
X89.765Y129.905
X89.765Y112.641
X89.765Y82.733
X89.765Y72.572
X89.765Y69.245
X89.765Y68.445
X89.765Y51.181
X89.765Y21.272
X89.765Y11.112
X89.765Y7.785
X89.765Y6.985
X90.4Y138.16
X90.4Y76.7
X90.4Y15.24
X91.035Y158.48
X91.035Y97.02
X91.035Y35.56
T3
X1.27Y174.99
X1.27Y172.45
X1.27Y169.91
X1.27Y167.37
X1.27Y164.83
X1.27Y162.29
X1.27Y159.75
X1.27Y157.21
X1.27Y154.67
X1.27Y152.13
X1.27Y149.59
X1.27Y147.05
X1.27Y113.53
X1.27Y110.99
X1.27Y108.45
X1.27Y105.91
X1.27Y103.37
X1.27Y100.83
X1.27Y98.29
X1.27Y95.75
X1.27Y93.21
X1.27Y90.67
X1.27Y88.13
X1.27Y85.59
X1.27Y52.07
X1.27Y49.53
X1.27Y46.99
X1.27Y44.45
X1.27Y41.91
X1.27Y39.37
X1.27Y36.83
X1.27Y34.29
X1.27Y31.75
X1.27Y29.21
X1.27Y26.67
X1.27Y24.13
X11.43Y142.605
X11.43Y140.065
X11.43Y81.145
X11.43Y78.605
X11.43Y19.685
X11.43Y17.145
X21.59Y174.99
X21.59Y172.45
X21.59Y169.91
X21.59Y167.37
X21.59Y164.83
X21.59Y162.29
X21.59Y159.75
X21.59Y157.21
X21.59Y154.67
X21.59Y152.13
X21.59Y149.59
X21.59Y147.05
X21.59Y144.51
X21.59Y141.97
X21.59Y139.43
X21.59Y136.89
X21.59Y113.53
X21.59Y110.99
X21.59Y108.45
X21.59Y105.91
X21.59Y103.37
X21.59Y100.83
X21.59Y98.29
X21.59Y95.75
X21.59Y93.21
X21.59Y90.67
X21.59Y88.13
X21.59Y85.59
X21.59Y83.05
X21.59Y80.51
X21.59Y77.97
X21.59Y75.43
X21.59Y52.07
X21.59Y49.53
X21.59Y46.99
X21.59Y44.45
X21.59Y41.91
X21.59Y39.37
X21.59Y36.83
X21.59Y34.29
X21.59Y31.75
X21.59Y29.21
X21.59Y26.67
X21.59Y24.13
X21.59Y21.59
X21.59Y19.05
X21.59Y16.51
X21.59Y13.97
X24.63Y174.99
X24.63Y172.45
X24.63Y169.91
X24.63Y167.37
X24.63Y164.83
X24.63Y162.29
X24.63Y159.75
X24.63Y157.21
X24.63Y154.67
X24.63Y152.13
X24.63Y149.59
X24.63Y147.05
X24.63Y113.53
X24.63Y110.99
X24.63Y108.45
X24.63Y105.91
X24.63Y103.37
X24.63Y100.83
X24.63Y98.29
X24.63Y95.75
X24.63Y93.21
X24.63Y90.67
X24.63Y88.13
X24.63Y85.59
X24.63Y52.07
X24.63Y49.53
X24.63Y46.99
X24.63Y44.45
X24.63Y41.91
X24.63Y39.37
X24.63Y36.83
X24.63Y34.29
X24.63Y31.75
X24.63Y29.21
X24.63Y26.67
X24.63Y24.13
X34.79Y142.605
X34.79Y140.065
X34.79Y81.145
X34.79Y78.605
X34.79Y19.685
X34.79Y17.145
X44.95Y174.99
X44.95Y172.45
X44.95Y169.91
X44.95Y167.37
X44.95Y164.83
X44.95Y162.29
X44.95Y159.75
X44.95Y157.21
X44.95Y154.67
X44.95Y152.13
X44.95Y149.59
X44.95Y147.05
X44.95Y144.51
X44.95Y141.97
X44.95Y139.43
X44.95Y136.89
X44.95Y113.53
X44.95Y110.99
X44.95Y108.45
X44.95Y105.91
X44.95Y103.37
X44.95Y100.83
X44.95Y98.29
X44.95Y95.75
X44.95Y93.21
X44.95Y90.67
X44.95Y88.13
X44.95Y85.59
X44.95Y83.05
X44.95Y80.51
X44.95Y77.97
X44.95Y75.43
X44.95Y52.07
X44.95Y49.53
X44.95Y46.99
X44.95Y44.45
X44.95Y41.91
X44.95Y39.37
X44.95Y36.83
X44.95Y34.29
X44.95Y31.75
X44.95Y29.21
X44.95Y26.67
X44.95Y24.13
X44.95Y21.59
X44.95Y19.05
X44.95Y16.51
X44.95Y13.97
X47.99Y174.99
X47.99Y172.45
X47.99Y169.91
X47.99Y167.37
X47.99Y164.83
X47.99Y162.29
X47.99Y159.75
X47.99Y157.21
X47.99Y154.67
X47.99Y152.13
X47.99Y149.59
X47.99Y147.05
X47.99Y113.53
X47.99Y110.99
X47.99Y108.45
X47.99Y105.91
X47.99Y103.37
X47.99Y100.83
X47.99Y98.29
X47.99Y95.75
X47.99Y93.21
X47.99Y90.67
X47.99Y88.13
X47.99Y85.59
X47.99Y52.07
X47.99Y49.53
X47.99Y46.99
X47.99Y44.45
X47.99Y41.91
X47.99Y39.37
X47.99Y36.83
X47.99Y34.29
X47.99Y31.75
X47.99Y29.21
X47.99Y26.67
X47.99Y24.13
X58.15Y142.605
X58.15Y140.065
X58.15Y81.145
X58.15Y78.605
X58.15Y19.685
X58.15Y17.145
X68.31Y174.99
X68.31Y172.45
X68.31Y169.91
X68.31Y167.37
X68.31Y164.83
X68.31Y162.29
X68.31Y159.75
X68.31Y157.21
X68.31Y154.67
X68.31Y152.13
X68.31Y149.59
X68.31Y147.05
X68.31Y144.51
X68.31Y141.97
X68.31Y139.43
X68.31Y136.89
X68.31Y113.53
X68.31Y110.99
X68.31Y108.45
X68.31Y105.91
X68.31Y103.37
X68.31Y100.83
X68.31Y98.29
X68.31Y95.75
X68.31Y93.21
X68.31Y90.67
X68.31Y88.13
X68.31Y85.59
X68.31Y83.05
X68.31Y80.51
X68.31Y77.97
X68.31Y75.43
X68.31Y52.07
X68.31Y49.53
X68.31Y46.99
X68.31Y44.45
X68.31Y41.91
X68.31Y39.37
X68.31Y36.83
X68.31Y34.29
X68.31Y31.75
X68.31Y29.21
X68.31Y26.67
X68.31Y24.13
X68.31Y21.59
X68.31Y19.05
X68.31Y16.51
X68.31Y13.97
X71.35Y174.99
X71.35Y172.45
X71.35Y169.91
X71.35Y167.37
X71.35Y164.83
X71.35Y162.29
X71.35Y159.75
X71.35Y157.21
X71.35Y154.67
X71.35Y152.13
X71.35Y149.59
X71.35Y147.05
X71.35Y113.53
X71.35Y110.99
X71.35Y108.45
X71.35Y105.91
X71.35Y103.37
X71.35Y100.83
X71.35Y98.29
X71.35Y95.75
X71.35Y93.21
X71.35Y90.67
X71.35Y88.13
X71.35Y85.59
X71.35Y52.07
X71.35Y49.53
X71.35Y46.99
X71.35Y44.45
X71.35Y41.91
X71.35Y39.37
X71.35Y36.83
X71.35Y34.29
X71.35Y31.75
X71.35Y29.21
X71.35Y26.67
X71.35Y24.13
X81.51Y142.605
X81.51Y140.065
X81.51Y81.145
X81.51Y78.605
X81.51Y19.685
X81.51Y17.145
X91.67Y174.99
X91.67Y172.45
X91.67Y169.91
X91.67Y167.37
X91.67Y164.83
X91.67Y162.29
X91.67Y159.75
X91.67Y157.21
X91.67Y154.67
X91.67Y152.13
X91.67Y149.59
X91.67Y147.05
X91.67Y144.51
X91.67Y141.97
X91.67Y139.43
X91.67Y136.89
X91.67Y113.53
X91.67Y110.99
X91.67Y108.45
X91.67Y105.91
X91.67Y103.37
X91.67Y100.83
X91.67Y98.29
X91.67Y95.75
X91.67Y93.21
X91.67Y90.67
X91.67Y88.13
X91.67Y85.59
X91.67Y83.05
X91.67Y80.51
X91.67Y77.97
X91.67Y75.43
X91.67Y52.07
X91.67Y49.53
X91.67Y46.99
X91.67Y44.45
X91.67Y41.91
X91.67Y39.37
X91.67Y36.83
X91.67Y34.29
X91.67Y31.75
X91.67Y29.21
X91.67Y26.67
X91.67Y24.13
X91.67Y21.59
X91.67Y19.05
X91.67Y16.51
X91.67Y13.97
T4
X8.54Y127.815
X8.54Y66.355
X8.54Y4.895
X14.32Y127.815
X14.32Y66.355
X14.32Y4.895
X31.9Y127.815
X31.9Y66.355
X31.9Y4.895
X37.68Y127.815
X37.68Y66.355
X37.68Y4.895
X55.26Y127.815
X55.26Y66.355
X55.26Y4.895
X61.04Y127.815
X61.04Y66.355
X61.04Y4.895
X78.62Y127.815
X78.62Y66.355
X78.62Y4.895
X84.4Y127.815
X84.4Y66.355
X84.4Y4.895
T5
X2.54Y178.8
X2.54Y125.46
X2.54Y117.34
X2.54Y64.0
X2.54Y55.88
X2.54Y2.54
X20.32Y178.8
X20.32Y125.46
X20.32Y117.34
X20.32Y64.0
X20.32Y55.88
X20.32Y2.54
X25.9Y178.8
X25.9Y125.46
X25.9Y117.34
X25.9Y64.0
X25.9Y55.88
X25.9Y2.54
X43.68Y178.8
X43.68Y125.46
X43.68Y117.34
X43.68Y64.0
X43.68Y55.88
X43.68Y2.54
X49.26Y178.8
X49.26Y125.46
X49.26Y117.34
X49.26Y64.0
X49.26Y55.88
X49.26Y2.54
X67.04Y178.8
X67.04Y125.46
X67.04Y117.34
X67.04Y64.0
X67.04Y55.88
X67.04Y2.54
X72.62Y178.8
X72.62Y125.46
X72.62Y117.34
X72.62Y64.0
X72.62Y55.88
X72.62Y2.54
X90.4Y178.8
X90.4Y125.46
X90.4Y117.34
X90.4Y64.0
X90.4Y55.88
X90.4Y2.54
T2
G00X7.112Y128.895
M15
G01X7.112Y127.795
M16
G05
G00X7.112Y124.465
M15
G01X7.112Y123.865
M16
G05
G00X7.112Y67.435
M15
G01X7.112Y66.335
M16
G05
G00X7.112Y63.005
M15
G01X7.112Y62.405
M16
G05
G00X7.112Y5.975
M15
G01X7.112Y4.875
M16
G05
G00X7.112Y1.545
M15
G01X7.112Y0.945
M16
G05
G00X15.748Y128.895
M15
G01X15.748Y127.795
M16
G05
G00X15.748Y124.465
M15
G01X15.748Y123.865
M16
G05
G00X15.748Y67.435
M15
G01X15.748Y66.335
M16
G05
G00X15.748Y63.005
M15
G01X15.748Y62.405
M16
G05
G00X15.748Y5.975
M15
G01X15.748Y4.875
M16
G05
G00X15.748Y1.545
M15
G01X15.748Y0.945
M16
G05
G00X30.472Y128.895
M15
G01X30.472Y127.795
M16
G05
G00X30.472Y124.465
M15
G01X30.472Y123.865
M16
G05
G00X30.472Y67.435
M15
G01X30.472Y66.335
M16
G05
G00X30.472Y63.005
M15
G01X30.472Y62.405
M16
G05
G00X30.472Y5.975
M15
G01X30.472Y4.875
M16
G05
G00X30.472Y1.545
M15
G01X30.472Y0.945
M16
G05
G00X39.108Y128.895
M15
G01X39.108Y127.795
M16
G05
G00X39.108Y124.465
M15
G01X39.108Y123.865
M16
G05
G00X39.108Y67.435
M15
G01X39.108Y66.335
M16
G05
G00X39.108Y63.005
M15
G01X39.108Y62.405
M16
G05
G00X39.108Y5.975
M15
G01X39.108Y4.875
M16
G05
G00X39.108Y1.545
M15
G01X39.108Y0.945
M16
G05
G00X53.832Y128.895
M15
G01X53.832Y127.795
M16
G05
G00X53.832Y124.465
M15
G01X53.832Y123.865
M16
G05
G00X53.832Y67.435
M15
G01X53.832Y66.335
M16
G05
G00X53.832Y63.005
M15
G01X53.832Y62.405
M16
G05
G00X53.832Y5.975
M15
G01X53.832Y4.875
M16
G05
G00X53.832Y1.545
M15
G01X53.832Y0.945
M16
G05
G00X62.468Y128.895
M15
G01X62.468Y127.795
M16
G05
G00X62.468Y124.465
M15
G01X62.468Y123.865
M16
G05
G00X62.468Y67.435
M15
G01X62.468Y66.335
M16
G05
G00X62.468Y63.005
M15
G01X62.468Y62.405
M16
G05
G00X62.468Y5.975
M15
G01X62.468Y4.875
M16
G05
G00X62.468Y1.545
M15
G01X62.468Y0.945
M16
G05
G00X77.192Y128.895
M15
G01X77.192Y127.795
M16
G05
G00X77.192Y124.465
M15
G01X77.192Y123.865
M16
G05
G00X77.192Y67.435
M15
G01X77.192Y66.335
M16
G05
G00X77.192Y63.005
M15
G01X77.192Y62.405
M16
G05
G00X77.192Y5.975
M15
G01X77.192Y4.875
M16
G05
G00X77.192Y1.545
M15
G01X77.192Y0.945
M16
G05
G00X85.828Y128.895
M15
G01X85.828Y127.795
M16
G05
G00X85.828Y124.465
M15
G01X85.828Y123.865
M16
G05
G00X85.828Y67.435
M15
G01X85.828Y66.335
M16
G05
G00X85.828Y63.005
M15
G01X85.828Y62.405
M16
G05
G00X85.828Y5.975
M15
G01X85.828Y4.875
M16
G05
G00X85.828Y1.545
M15
G01X85.828Y0.945
M16
G05
M30
