%TF.GenerationSoftware,KiCad,Pcbnew,9.0.7-9.0.7~ubuntu24.04.1*%
%TF.CreationDate,2026-01-23T10:08:47-07:00*%
%TF.ProjectId,SparkFun_Thing_Plus_ESP32_C5_panelized,53706172-6b46-4756-9e5f-5468696e675f,v10*%
%TF.SameCoordinates,Original*%
%TF.FileFunction,Soldermask,Top*%
%TF.FilePolarity,Negative*%
%FSLAX46Y46*%
G04 Gerber Fmt 4.6, Leading zero omitted, Abs format (unit mm)*
G04 Created by KiCad (PCBNEW 9.0.7-9.0.7~ubuntu24.04.1) date 2026-01-23 10:08:47*
%MOMM*%
%LPD*%
G01*
G04 APERTURE LIST*
G04 Aperture macros list*
%AMRoundRect*
0 Rectangle with rounded corners*
0 $1 Rounding radius*
0 $2 $3 $4 $5 $6 $7 $8 $9 X,Y pos of 4 corners*
0 Add a 4 corners polygon primitive as box body*
4,1,4,$2,$3,$4,$5,$6,$7,$8,$9,$2,$3,0*
0 Add four circle primitives for the rounded corners*
1,1,$1+$1,$2,$3*
1,1,$1+$1,$4,$5*
1,1,$1+$1,$6,$7*
1,1,$1+$1,$8,$9*
0 Add four rect primitives between the rounded corners*
20,1,$1+$1,$2,$3,$4,$5,0*
20,1,$1+$1,$4,$5,$6,$7,0*
20,1,$1+$1,$6,$7,$8,$9,0*
20,1,$1+$1,$8,$9,$2,$3,0*%
G04 Aperture macros list end*
%ADD10C,3.000000*%
%ADD11C,1.979600*%
%ADD12C,3.200000*%
%ADD13R,1.500000X0.900000*%
%ADD14R,1.300000X1.300000*%
%ADD15RoundRect,0.050000X-0.275000X-0.600000X0.275000X-0.600000X0.275000X0.600000X-0.275000X0.600000X0*%
%ADD16RoundRect,0.050000X0.150000X-0.350000X0.150000X0.350000X-0.150000X0.350000X-0.150000X-0.350000X0*%
%ADD17RoundRect,0.050000X-0.690000X-0.400000X0.690000X-0.400000X0.690000X0.400000X-0.690000X0.400000X0*%
%ADD18RoundRect,0.050000X-0.675000X0.300000X-0.675000X-0.300000X0.675000X-0.300000X0.675000X0.300000X0*%
%ADD19RoundRect,0.050000X-1.000000X0.600000X-1.000000X-0.600000X1.000000X-0.600000X1.000000X0.600000X0*%
%ADD20RoundRect,0.225000X0.225000X0.300000X-0.225000X0.300000X-0.225000X-0.300000X0.225000X-0.300000X0*%
%ADD21RoundRect,0.250000X-0.250000X-0.275000X0.250000X-0.275000X0.250000X0.275000X-0.250000X0.275000X0*%
%ADD22RoundRect,0.050000X0.450000X0.500000X-0.450000X0.500000X-0.450000X-0.500000X0.450000X-0.500000X0*%
%ADD23RoundRect,0.243750X0.281250X-0.243750X0.281250X0.243750X-0.281250X0.243750X-0.281250X-0.243750X0*%
%ADD24RoundRect,0.050000X2.300000X-0.500000X2.300000X0.500000X-2.300000X0.500000X-2.300000X-0.500000X0*%
%ADD25RoundRect,0.050000X1.700000X0.800000X-1.700000X0.800000X-1.700000X-0.800000X1.700000X-0.800000X0*%
%ADD26RoundRect,0.225000X-0.225000X-0.300000X0.225000X-0.300000X0.225000X0.300000X-0.225000X0.300000X0*%
%ADD27RoundRect,0.050000X-0.350000X0.350000X-0.350000X-0.350000X0.350000X-0.350000X0.350000X0.350000X0*%
%ADD28C,0.750000*%
%ADD29RoundRect,0.050000X0.150000X0.500000X-0.150000X0.500000X-0.150000X-0.500000X0.150000X-0.500000X0*%
%ADD30RoundRect,0.050000X-0.150000X-0.500000X0.150000X-0.500000X0.150000X0.500000X-0.150000X0.500000X0*%
%ADD31RoundRect,0.050000X0.300000X0.500000X-0.300000X0.500000X-0.300000X-0.500000X0.300000X-0.500000X0*%
%ADD32RoundRect,0.050000X-0.300000X-0.500000X0.300000X-0.500000X0.300000X0.500000X-0.300000X0.500000X0*%
%ADD33O,1.100000X1.700000*%
%ADD34O,1.100000X2.200000*%
%ADD35RoundRect,0.225000X-0.300000X0.225000X-0.300000X-0.225000X0.300000X-0.225000X0.300000X0.225000X0*%
%ADD36C,0.600000*%
%ADD37RoundRect,0.066667X-0.133333X0.318333X-0.133333X-0.318333X0.133333X-0.318333X0.133333X0.318333X0*%
%ADD38RoundRect,0.250000X0.250000X0.275000X-0.250000X0.275000X-0.250000X-0.275000X0.250000X-0.275000X0*%
G04 APERTURE END LIST*
D10*
%TO.C,*%
X95027500Y181880000D03*
%TD*%
%TO.C,*%
X-2087500Y181880000D03*
%TD*%
%TO.C,*%
X-2087500Y-540000D03*
%TD*%
D11*
%TO.C,JP2*%
X81510000Y140065000D03*
X81510000Y142605000D03*
%TD*%
%TO.C,JP2*%
X81510000Y78605000D03*
X81510000Y81145000D03*
%TD*%
%TO.C,JP2*%
X81510000Y17145000D03*
X81510000Y19685000D03*
%TD*%
%TO.C,JP2*%
X58150000Y140065000D03*
X58150000Y142605000D03*
%TD*%
%TO.C,JP2*%
X58150000Y78605000D03*
X58150000Y81145000D03*
%TD*%
%TO.C,JP2*%
X58150000Y17145000D03*
X58150000Y19685000D03*
%TD*%
%TO.C,JP2*%
X34790000Y140065000D03*
X34790000Y142605000D03*
%TD*%
%TO.C,JP2*%
X34790000Y78605000D03*
X34790000Y81145000D03*
%TD*%
%TO.C,JP2*%
X34790000Y17145000D03*
X34790000Y19685000D03*
%TD*%
%TO.C,JP2*%
X11430000Y140065000D03*
X11430000Y142605000D03*
%TD*%
%TO.C,JP2*%
X11430000Y78605000D03*
X11430000Y81145000D03*
%TD*%
D12*
%TO.C,ST2*%
X72620000Y125460000D03*
%TD*%
%TO.C,ST2*%
X72620000Y64000000D03*
%TD*%
%TO.C,ST2*%
X72620000Y2540000D03*
%TD*%
%TO.C,ST2*%
X49260000Y125460000D03*
%TD*%
%TO.C,ST2*%
X49260000Y64000000D03*
%TD*%
%TO.C,ST2*%
X49260000Y2540000D03*
%TD*%
%TO.C,ST2*%
X25900000Y125460000D03*
%TD*%
%TO.C,ST2*%
X25900000Y64000000D03*
%TD*%
%TO.C,ST2*%
X25900000Y2540000D03*
%TD*%
%TO.C,ST2*%
X2540000Y125460000D03*
%TD*%
%TO.C,ST2*%
X2540000Y64000000D03*
%TD*%
D13*
%TO.C,U1*%
X73260000Y173130000D03*
X73260000Y171860000D03*
X73260000Y170590000D03*
X73260000Y169320000D03*
X73260000Y168050000D03*
X73260000Y166780000D03*
X73260000Y165510000D03*
X73260000Y164240000D03*
X73260000Y162970000D03*
X73260000Y161700000D03*
X73260000Y160430000D03*
X73260000Y159160000D03*
X73260000Y157890000D03*
X73260000Y156620000D03*
X89760000Y156620000D03*
X89760000Y157890000D03*
X89760000Y159160000D03*
X89760000Y160430000D03*
X89760000Y161700000D03*
X89760000Y162970000D03*
X89760000Y164240000D03*
X89760000Y165510000D03*
X89760000Y166780000D03*
X89760000Y168050000D03*
X89760000Y169320000D03*
X89760000Y170590000D03*
X89760000Y171860000D03*
X89760000Y173130000D03*
D14*
X80639800Y166242000D03*
X80639800Y164542000D03*
X80639800Y162842000D03*
X82339800Y166242000D03*
X82339800Y164542000D03*
X82339800Y162842000D03*
X84039800Y166242000D03*
X84039800Y164542000D03*
X84039800Y162842000D03*
%TD*%
D13*
%TO.C,U1*%
X73260000Y111670000D03*
X73260000Y110400000D03*
X73260000Y109130000D03*
X73260000Y107860000D03*
X73260000Y106590000D03*
X73260000Y105320000D03*
X73260000Y104050000D03*
X73260000Y102780000D03*
X73260000Y101510000D03*
X73260000Y100240000D03*
X73260000Y98970000D03*
X73260000Y97700000D03*
X73260000Y96430000D03*
X73260000Y95160000D03*
X89760000Y95160000D03*
X89760000Y96430000D03*
X89760000Y97700000D03*
X89760000Y98970000D03*
X89760000Y100240000D03*
X89760000Y101510000D03*
X89760000Y102780000D03*
X89760000Y104050000D03*
X89760000Y105320000D03*
X89760000Y106590000D03*
X89760000Y107860000D03*
X89760000Y109130000D03*
X89760000Y110400000D03*
X89760000Y111670000D03*
D14*
X80639800Y104782000D03*
X80639800Y103082000D03*
X80639800Y101382000D03*
X82339800Y104782000D03*
X82339800Y103082000D03*
X82339800Y101382000D03*
X84039800Y104782000D03*
X84039800Y103082000D03*
X84039800Y101382000D03*
%TD*%
D13*
%TO.C,U1*%
X73260000Y50210000D03*
X73260000Y48940000D03*
X73260000Y47670000D03*
X73260000Y46400000D03*
X73260000Y45130000D03*
X73260000Y43860000D03*
X73260000Y42590000D03*
X73260000Y41320000D03*
X73260000Y40050000D03*
X73260000Y38780000D03*
X73260000Y37510000D03*
X73260000Y36240000D03*
X73260000Y34970000D03*
X73260000Y33700000D03*
X89760000Y33700000D03*
X89760000Y34970000D03*
X89760000Y36240000D03*
X89760000Y37510000D03*
X89760000Y38780000D03*
X89760000Y40050000D03*
X89760000Y41320000D03*
X89760000Y42590000D03*
X89760000Y43860000D03*
X89760000Y45130000D03*
X89760000Y46400000D03*
X89760000Y47670000D03*
X89760000Y48940000D03*
X89760000Y50210000D03*
D14*
X80639800Y43322000D03*
X80639800Y41622000D03*
X80639800Y39922000D03*
X82339800Y43322000D03*
X82339800Y41622000D03*
X82339800Y39922000D03*
X84039800Y43322000D03*
X84039800Y41622000D03*
X84039800Y39922000D03*
%TD*%
D13*
%TO.C,U1*%
X49900000Y173130000D03*
X49900000Y171860000D03*
X49900000Y170590000D03*
X49900000Y169320000D03*
X49900000Y168050000D03*
X49900000Y166780000D03*
X49900000Y165510000D03*
X49900000Y164240000D03*
X49900000Y162970000D03*
X49900000Y161700000D03*
X49900000Y160430000D03*
X49900000Y159160000D03*
X49900000Y157890000D03*
X49900000Y156620000D03*
X66400000Y156620000D03*
X66400000Y157890000D03*
X66400000Y159160000D03*
X66400000Y160430000D03*
X66400000Y161700000D03*
X66400000Y162970000D03*
X66400000Y164240000D03*
X66400000Y165510000D03*
X66400000Y166780000D03*
X66400000Y168050000D03*
X66400000Y169320000D03*
X66400000Y170590000D03*
X66400000Y171860000D03*
X66400000Y173130000D03*
D14*
X57279800Y166242000D03*
X57279800Y164542000D03*
X57279800Y162842000D03*
X58979800Y166242000D03*
X58979800Y164542000D03*
X58979800Y162842000D03*
X60679800Y166242000D03*
X60679800Y164542000D03*
X60679800Y162842000D03*
%TD*%
D13*
%TO.C,U1*%
X49900000Y111670000D03*
X49900000Y110400000D03*
X49900000Y109130000D03*
X49900000Y107860000D03*
X49900000Y106590000D03*
X49900000Y105320000D03*
X49900000Y104050000D03*
X49900000Y102780000D03*
X49900000Y101510000D03*
X49900000Y100240000D03*
X49900000Y98970000D03*
X49900000Y97700000D03*
X49900000Y96430000D03*
X49900000Y95160000D03*
X66400000Y95160000D03*
X66400000Y96430000D03*
X66400000Y97700000D03*
X66400000Y98970000D03*
X66400000Y100240000D03*
X66400000Y101510000D03*
X66400000Y102780000D03*
X66400000Y104050000D03*
X66400000Y105320000D03*
X66400000Y106590000D03*
X66400000Y107860000D03*
X66400000Y109130000D03*
X66400000Y110400000D03*
X66400000Y111670000D03*
D14*
X57279800Y104782000D03*
X57279800Y103082000D03*
X57279800Y101382000D03*
X58979800Y104782000D03*
X58979800Y103082000D03*
X58979800Y101382000D03*
X60679800Y104782000D03*
X60679800Y103082000D03*
X60679800Y101382000D03*
%TD*%
D13*
%TO.C,U1*%
X49900000Y50210000D03*
X49900000Y48940000D03*
X49900000Y47670000D03*
X49900000Y46400000D03*
X49900000Y45130000D03*
X49900000Y43860000D03*
X49900000Y42590000D03*
X49900000Y41320000D03*
X49900000Y40050000D03*
X49900000Y38780000D03*
X49900000Y37510000D03*
X49900000Y36240000D03*
X49900000Y34970000D03*
X49900000Y33700000D03*
X66400000Y33700000D03*
X66400000Y34970000D03*
X66400000Y36240000D03*
X66400000Y37510000D03*
X66400000Y38780000D03*
X66400000Y40050000D03*
X66400000Y41320000D03*
X66400000Y42590000D03*
X66400000Y43860000D03*
X66400000Y45130000D03*
X66400000Y46400000D03*
X66400000Y47670000D03*
X66400000Y48940000D03*
X66400000Y50210000D03*
D14*
X57279800Y43322000D03*
X57279800Y41622000D03*
X57279800Y39922000D03*
X58979800Y43322000D03*
X58979800Y41622000D03*
X58979800Y39922000D03*
X60679800Y43322000D03*
X60679800Y41622000D03*
X60679800Y39922000D03*
%TD*%
D13*
%TO.C,U1*%
X26540000Y173130000D03*
X26540000Y171860000D03*
X26540000Y170590000D03*
X26540000Y169320000D03*
X26540000Y168050000D03*
X26540000Y166780000D03*
X26540000Y165510000D03*
X26540000Y164240000D03*
X26540000Y162970000D03*
X26540000Y161700000D03*
X26540000Y160430000D03*
X26540000Y159160000D03*
X26540000Y157890000D03*
X26540000Y156620000D03*
X43040000Y156620000D03*
X43040000Y157890000D03*
X43040000Y159160000D03*
X43040000Y160430000D03*
X43040000Y161700000D03*
X43040000Y162970000D03*
X43040000Y164240000D03*
X43040000Y165510000D03*
X43040000Y166780000D03*
X43040000Y168050000D03*
X43040000Y169320000D03*
X43040000Y170590000D03*
X43040000Y171860000D03*
X43040000Y173130000D03*
D14*
X33919800Y166242000D03*
X33919800Y164542000D03*
X33919800Y162842000D03*
X35619800Y166242000D03*
X35619800Y164542000D03*
X35619800Y162842000D03*
X37319800Y166242000D03*
X37319800Y164542000D03*
X37319800Y162842000D03*
%TD*%
D13*
%TO.C,U1*%
X26540000Y111670000D03*
X26540000Y110400000D03*
X26540000Y109130000D03*
X26540000Y107860000D03*
X26540000Y106590000D03*
X26540000Y105320000D03*
X26540000Y104050000D03*
X26540000Y102780000D03*
X26540000Y101510000D03*
X26540000Y100240000D03*
X26540000Y98970000D03*
X26540000Y97700000D03*
X26540000Y96430000D03*
X26540000Y95160000D03*
X43040000Y95160000D03*
X43040000Y96430000D03*
X43040000Y97700000D03*
X43040000Y98970000D03*
X43040000Y100240000D03*
X43040000Y101510000D03*
X43040000Y102780000D03*
X43040000Y104050000D03*
X43040000Y105320000D03*
X43040000Y106590000D03*
X43040000Y107860000D03*
X43040000Y109130000D03*
X43040000Y110400000D03*
X43040000Y111670000D03*
D14*
X33919800Y104782000D03*
X33919800Y103082000D03*
X33919800Y101382000D03*
X35619800Y104782000D03*
X35619800Y103082000D03*
X35619800Y101382000D03*
X37319800Y104782000D03*
X37319800Y103082000D03*
X37319800Y101382000D03*
%TD*%
D13*
%TO.C,U1*%
X26540000Y50210000D03*
X26540000Y48940000D03*
X26540000Y47670000D03*
X26540000Y46400000D03*
X26540000Y45130000D03*
X26540000Y43860000D03*
X26540000Y42590000D03*
X26540000Y41320000D03*
X26540000Y40050000D03*
X26540000Y38780000D03*
X26540000Y37510000D03*
X26540000Y36240000D03*
X26540000Y34970000D03*
X26540000Y33700000D03*
X43040000Y33700000D03*
X43040000Y34970000D03*
X43040000Y36240000D03*
X43040000Y37510000D03*
X43040000Y38780000D03*
X43040000Y40050000D03*
X43040000Y41320000D03*
X43040000Y42590000D03*
X43040000Y43860000D03*
X43040000Y45130000D03*
X43040000Y46400000D03*
X43040000Y47670000D03*
X43040000Y48940000D03*
X43040000Y50210000D03*
D14*
X33919800Y43322000D03*
X33919800Y41622000D03*
X33919800Y39922000D03*
X35619800Y43322000D03*
X35619800Y41622000D03*
X35619800Y39922000D03*
X37319800Y43322000D03*
X37319800Y41622000D03*
X37319800Y39922000D03*
%TD*%
D13*
%TO.C,U1*%
X3180000Y173130000D03*
X3180000Y171860000D03*
X3180000Y170590000D03*
X3180000Y169320000D03*
X3180000Y168050000D03*
X3180000Y166780000D03*
X3180000Y165510000D03*
X3180000Y164240000D03*
X3180000Y162970000D03*
X3180000Y161700000D03*
X3180000Y160430000D03*
X3180000Y159160000D03*
X3180000Y157890000D03*
X3180000Y156620000D03*
X19680000Y156620000D03*
X19680000Y157890000D03*
X19680000Y159160000D03*
X19680000Y160430000D03*
X19680000Y161700000D03*
X19680000Y162970000D03*
X19680000Y164240000D03*
X19680000Y165510000D03*
X19680000Y166780000D03*
X19680000Y168050000D03*
X19680000Y169320000D03*
X19680000Y170590000D03*
X19680000Y171860000D03*
X19680000Y173130000D03*
D14*
X10559800Y166242000D03*
X10559800Y164542000D03*
X10559800Y162842000D03*
X12259800Y166242000D03*
X12259800Y164542000D03*
X12259800Y162842000D03*
X13959800Y166242000D03*
X13959800Y164542000D03*
X13959800Y162842000D03*
%TD*%
D13*
%TO.C,U1*%
X3180000Y111670000D03*
X3180000Y110400000D03*
X3180000Y109130000D03*
X3180000Y107860000D03*
X3180000Y106590000D03*
X3180000Y105320000D03*
X3180000Y104050000D03*
X3180000Y102780000D03*
X3180000Y101510000D03*
X3180000Y100240000D03*
X3180000Y98970000D03*
X3180000Y97700000D03*
X3180000Y96430000D03*
X3180000Y95160000D03*
X19680000Y95160000D03*
X19680000Y96430000D03*
X19680000Y97700000D03*
X19680000Y98970000D03*
X19680000Y100240000D03*
X19680000Y101510000D03*
X19680000Y102780000D03*
X19680000Y104050000D03*
X19680000Y105320000D03*
X19680000Y106590000D03*
X19680000Y107860000D03*
X19680000Y109130000D03*
X19680000Y110400000D03*
X19680000Y111670000D03*
D14*
X10559800Y104782000D03*
X10559800Y103082000D03*
X10559800Y101382000D03*
X12259800Y104782000D03*
X12259800Y103082000D03*
X12259800Y101382000D03*
X13959800Y104782000D03*
X13959800Y103082000D03*
X13959800Y101382000D03*
%TD*%
D15*
%TO.C,U5*%
X79417000Y145114900D03*
X80367000Y145114900D03*
X81317000Y145114900D03*
X81317000Y147715100D03*
X79417000Y147715100D03*
%TD*%
%TO.C,U5*%
X79417000Y83654900D03*
X80367000Y83654900D03*
X81317000Y83654900D03*
X81317000Y86255100D03*
X79417000Y86255100D03*
%TD*%
%TO.C,U5*%
X79417000Y22194900D03*
X80367000Y22194900D03*
X81317000Y22194900D03*
X81317000Y24795100D03*
X79417000Y24795100D03*
%TD*%
%TO.C,U5*%
X56057000Y145114900D03*
X57007000Y145114900D03*
X57957000Y145114900D03*
X57957000Y147715100D03*
X56057000Y147715100D03*
%TD*%
%TO.C,U5*%
X56057000Y83654900D03*
X57007000Y83654900D03*
X57957000Y83654900D03*
X57957000Y86255100D03*
X56057000Y86255100D03*
%TD*%
%TO.C,U5*%
X56057000Y22194900D03*
X57007000Y22194900D03*
X57957000Y22194900D03*
X57957000Y24795100D03*
X56057000Y24795100D03*
%TD*%
%TO.C,U5*%
X32697000Y145114900D03*
X33647000Y145114900D03*
X34597000Y145114900D03*
X34597000Y147715100D03*
X32697000Y147715100D03*
%TD*%
%TO.C,U5*%
X32697000Y83654900D03*
X33647000Y83654900D03*
X34597000Y83654900D03*
X34597000Y86255100D03*
X32697000Y86255100D03*
%TD*%
%TO.C,U5*%
X32697000Y22194900D03*
X33647000Y22194900D03*
X34597000Y22194900D03*
X34597000Y24795100D03*
X32697000Y24795100D03*
%TD*%
%TO.C,U5*%
X9337000Y145114900D03*
X10287000Y145114900D03*
X11237000Y145114900D03*
X11237000Y147715100D03*
X9337000Y147715100D03*
%TD*%
%TO.C,U5*%
X9337000Y83654900D03*
X10287000Y83654900D03*
X11237000Y83654900D03*
X11237000Y86255100D03*
X9337000Y86255100D03*
%TD*%
D16*
%TO.C,U6*%
X75997500Y150505000D03*
X76497500Y150505000D03*
X76997500Y150505000D03*
X77497500Y150505000D03*
X77497500Y152485000D03*
X76997500Y152485000D03*
X76497500Y152485000D03*
X75997500Y152485000D03*
D17*
X76747500Y151495000D03*
%TD*%
D16*
%TO.C,U6*%
X75997500Y89045000D03*
X76497500Y89045000D03*
X76997500Y89045000D03*
X77497500Y89045000D03*
X77497500Y91025000D03*
X76997500Y91025000D03*
X76497500Y91025000D03*
X75997500Y91025000D03*
D17*
X76747500Y90035000D03*
%TD*%
D16*
%TO.C,U6*%
X75997500Y27585000D03*
X76497500Y27585000D03*
X76997500Y27585000D03*
X77497500Y27585000D03*
X77497500Y29565000D03*
X76997500Y29565000D03*
X76497500Y29565000D03*
X75997500Y29565000D03*
D17*
X76747500Y28575000D03*
%TD*%
D16*
%TO.C,U6*%
X52637500Y150505000D03*
X53137500Y150505000D03*
X53637500Y150505000D03*
X54137500Y150505000D03*
X54137500Y152485000D03*
X53637500Y152485000D03*
X53137500Y152485000D03*
X52637500Y152485000D03*
D17*
X53387500Y151495000D03*
%TD*%
D16*
%TO.C,U6*%
X52637500Y89045000D03*
X53137500Y89045000D03*
X53637500Y89045000D03*
X54137500Y89045000D03*
X54137500Y91025000D03*
X53637500Y91025000D03*
X53137500Y91025000D03*
X52637500Y91025000D03*
D17*
X53387500Y90035000D03*
%TD*%
D16*
%TO.C,U6*%
X52637500Y27585000D03*
X53137500Y27585000D03*
X53637500Y27585000D03*
X54137500Y27585000D03*
X54137500Y29565000D03*
X53637500Y29565000D03*
X53137500Y29565000D03*
X52637500Y29565000D03*
D17*
X53387500Y28575000D03*
%TD*%
D16*
%TO.C,U6*%
X29277500Y150505000D03*
X29777500Y150505000D03*
X30277500Y150505000D03*
X30777500Y150505000D03*
X30777500Y152485000D03*
X30277500Y152485000D03*
X29777500Y152485000D03*
X29277500Y152485000D03*
D17*
X30027500Y151495000D03*
%TD*%
D16*
%TO.C,U6*%
X29277500Y89045000D03*
X29777500Y89045000D03*
X30277500Y89045000D03*
X30777500Y89045000D03*
X30777500Y91025000D03*
X30277500Y91025000D03*
X29777500Y91025000D03*
X29277500Y91025000D03*
D17*
X30027500Y90035000D03*
%TD*%
D16*
%TO.C,U6*%
X29277500Y27585000D03*
X29777500Y27585000D03*
X30277500Y27585000D03*
X30777500Y27585000D03*
X30777500Y29565000D03*
X30277500Y29565000D03*
X29777500Y29565000D03*
X29277500Y29565000D03*
D17*
X30027500Y28575000D03*
%TD*%
D16*
%TO.C,U6*%
X5917500Y150505000D03*
X6417500Y150505000D03*
X6917500Y150505000D03*
X7417500Y150505000D03*
X7417500Y152485000D03*
X6917500Y152485000D03*
X6417500Y152485000D03*
X5917500Y152485000D03*
D17*
X6667500Y151495000D03*
%TD*%
D16*
%TO.C,U6*%
X5917500Y89045000D03*
X6417500Y89045000D03*
X6917500Y89045000D03*
X7417500Y89045000D03*
X7417500Y91025000D03*
X6917500Y91025000D03*
X6417500Y91025000D03*
X5917500Y91025000D03*
D17*
X6667500Y90035000D03*
%TD*%
D18*
%TO.C,J1*%
X75160000Y133945000D03*
X75160000Y132945000D03*
X75160000Y131945000D03*
X75160000Y130945000D03*
D19*
X71485000Y129645000D03*
X71485000Y135245000D03*
%TD*%
D18*
%TO.C,J1*%
X75160000Y72485000D03*
X75160000Y71485000D03*
X75160000Y70485000D03*
X75160000Y69485000D03*
D19*
X71485000Y68185000D03*
X71485000Y73785000D03*
%TD*%
D18*
%TO.C,J1*%
X75160000Y11025000D03*
X75160000Y10025000D03*
X75160000Y9025000D03*
X75160000Y8025000D03*
D19*
X71485000Y6725000D03*
X71485000Y12325000D03*
%TD*%
D18*
%TO.C,J1*%
X51800000Y133945000D03*
X51800000Y132945000D03*
X51800000Y131945000D03*
X51800000Y130945000D03*
D19*
X48125000Y129645000D03*
X48125000Y135245000D03*
%TD*%
D18*
%TO.C,J1*%
X51800000Y72485000D03*
X51800000Y71485000D03*
X51800000Y70485000D03*
X51800000Y69485000D03*
D19*
X48125000Y68185000D03*
X48125000Y73785000D03*
%TD*%
D18*
%TO.C,J1*%
X51800000Y11025000D03*
X51800000Y10025000D03*
X51800000Y9025000D03*
X51800000Y8025000D03*
D19*
X48125000Y6725000D03*
X48125000Y12325000D03*
%TD*%
D18*
%TO.C,J1*%
X28440000Y133945000D03*
X28440000Y132945000D03*
X28440000Y131945000D03*
X28440000Y130945000D03*
D19*
X24765000Y129645000D03*
X24765000Y135245000D03*
%TD*%
D18*
%TO.C,J1*%
X28440000Y72485000D03*
X28440000Y71485000D03*
X28440000Y70485000D03*
X28440000Y69485000D03*
D19*
X24765000Y68185000D03*
X24765000Y73785000D03*
%TD*%
D18*
%TO.C,J1*%
X28440000Y11025000D03*
X28440000Y10025000D03*
X28440000Y9025000D03*
X28440000Y8025000D03*
D19*
X24765000Y6725000D03*
X24765000Y12325000D03*
%TD*%
D18*
%TO.C,J1*%
X5080000Y133945000D03*
X5080000Y132945000D03*
X5080000Y131945000D03*
X5080000Y130945000D03*
D19*
X1405000Y129645000D03*
X1405000Y135245000D03*
%TD*%
D18*
%TO.C,J1*%
X5080000Y72485000D03*
X5080000Y71485000D03*
X5080000Y70485000D03*
X5080000Y69485000D03*
D19*
X1405000Y68185000D03*
X1405000Y73785000D03*
%TD*%
D12*
%TO.C,ST1*%
X72620000Y178800000D03*
%TD*%
%TO.C,ST1*%
X72620000Y117340000D03*
%TD*%
%TO.C,ST1*%
X72620000Y55880000D03*
%TD*%
%TO.C,ST1*%
X49260000Y178800000D03*
%TD*%
%TO.C,ST1*%
X49260000Y117340000D03*
%TD*%
%TO.C,ST1*%
X49260000Y55880000D03*
%TD*%
%TO.C,ST1*%
X25900000Y178800000D03*
%TD*%
%TO.C,ST1*%
X25900000Y117340000D03*
%TD*%
%TO.C,ST1*%
X25900000Y55880000D03*
%TD*%
%TO.C,ST1*%
X2540000Y178800000D03*
%TD*%
%TO.C,ST1*%
X2540000Y117340000D03*
%TD*%
D20*
%TO.C,R5*%
X79160000Y132127500D03*
X77510000Y132127500D03*
%TD*%
%TO.C,R5*%
X79160000Y70667500D03*
X77510000Y70667500D03*
%TD*%
%TO.C,R5*%
X79160000Y9207500D03*
X77510000Y9207500D03*
%TD*%
%TO.C,R5*%
X55800000Y132127500D03*
X54150000Y132127500D03*
%TD*%
%TO.C,R5*%
X55800000Y70667500D03*
X54150000Y70667500D03*
%TD*%
%TO.C,R5*%
X55800000Y9207500D03*
X54150000Y9207500D03*
%TD*%
%TO.C,R5*%
X32440000Y132127500D03*
X30790000Y132127500D03*
%TD*%
%TO.C,R5*%
X32440000Y70667500D03*
X30790000Y70667500D03*
%TD*%
%TO.C,R5*%
X32440000Y9207500D03*
X30790000Y9207500D03*
%TD*%
%TO.C,R5*%
X9080000Y132127500D03*
X7430000Y132127500D03*
%TD*%
%TO.C,R5*%
X9080000Y70667500D03*
X7430000Y70667500D03*
%TD*%
D21*
%TO.C,C5*%
X83592500Y146732500D03*
X85142500Y146732500D03*
%TD*%
%TO.C,C5*%
X83592500Y85272500D03*
X85142500Y85272500D03*
%TD*%
%TO.C,C5*%
X83592500Y23812500D03*
X85142500Y23812500D03*
%TD*%
%TO.C,C5*%
X60232500Y146732500D03*
X61782500Y146732500D03*
%TD*%
%TO.C,C5*%
X60232500Y85272500D03*
X61782500Y85272500D03*
%TD*%
%TO.C,C5*%
X60232500Y23812500D03*
X61782500Y23812500D03*
%TD*%
%TO.C,C5*%
X36872500Y146732500D03*
X38422500Y146732500D03*
%TD*%
%TO.C,C5*%
X36872500Y85272500D03*
X38422500Y85272500D03*
%TD*%
%TO.C,C5*%
X36872500Y23812500D03*
X38422500Y23812500D03*
%TD*%
%TO.C,C5*%
X13512500Y146732500D03*
X15062500Y146732500D03*
%TD*%
%TO.C,C5*%
X13512500Y85272500D03*
X15062500Y85272500D03*
%TD*%
D22*
%TO.C,SW1*%
X91815000Y133232500D03*
X87715000Y133232500D03*
X91815000Y134832500D03*
X87715000Y134832500D03*
%TD*%
%TO.C,SW1*%
X91815000Y71772500D03*
X87715000Y71772500D03*
X91815000Y73372500D03*
X87715000Y73372500D03*
%TD*%
%TO.C,SW1*%
X91815000Y10312500D03*
X87715000Y10312500D03*
X91815000Y11912500D03*
X87715000Y11912500D03*
%TD*%
%TO.C,SW1*%
X68455000Y133232500D03*
X64355000Y133232500D03*
X68455000Y134832500D03*
X64355000Y134832500D03*
%TD*%
%TO.C,SW1*%
X68455000Y71772500D03*
X64355000Y71772500D03*
X68455000Y73372500D03*
X64355000Y73372500D03*
%TD*%
%TO.C,SW1*%
X68455000Y10312500D03*
X64355000Y10312500D03*
X68455000Y11912500D03*
X64355000Y11912500D03*
%TD*%
%TO.C,SW1*%
X45095000Y133232500D03*
X40995000Y133232500D03*
X45095000Y134832500D03*
X40995000Y134832500D03*
%TD*%
%TO.C,SW1*%
X45095000Y71772500D03*
X40995000Y71772500D03*
X45095000Y73372500D03*
X40995000Y73372500D03*
%TD*%
%TO.C,SW1*%
X45095000Y10312500D03*
X40995000Y10312500D03*
X45095000Y11912500D03*
X40995000Y11912500D03*
%TD*%
%TO.C,SW1*%
X21735000Y133232500D03*
X17635000Y133232500D03*
X21735000Y134832500D03*
X17635000Y134832500D03*
%TD*%
%TO.C,SW1*%
X21735000Y71772500D03*
X17635000Y71772500D03*
X21735000Y73372500D03*
X17635000Y73372500D03*
%TD*%
D21*
%TO.C,C4*%
X83592500Y141017500D03*
X85142500Y141017500D03*
%TD*%
%TO.C,C4*%
X83592500Y79557500D03*
X85142500Y79557500D03*
%TD*%
%TO.C,C4*%
X83592500Y18097500D03*
X85142500Y18097500D03*
%TD*%
%TO.C,C4*%
X60232500Y141017500D03*
X61782500Y141017500D03*
%TD*%
%TO.C,C4*%
X60232500Y79557500D03*
X61782500Y79557500D03*
%TD*%
%TO.C,C4*%
X60232500Y18097500D03*
X61782500Y18097500D03*
%TD*%
%TO.C,C4*%
X36872500Y141017500D03*
X38422500Y141017500D03*
%TD*%
%TO.C,C4*%
X36872500Y79557500D03*
X38422500Y79557500D03*
%TD*%
%TO.C,C4*%
X36872500Y18097500D03*
X38422500Y18097500D03*
%TD*%
%TO.C,C4*%
X13512500Y141017500D03*
X15062500Y141017500D03*
%TD*%
%TO.C,C4*%
X13512500Y79557500D03*
X15062500Y79557500D03*
%TD*%
D15*
%TO.C,U4*%
X83417500Y142574900D03*
X84367500Y142574900D03*
X85317500Y142574900D03*
X85317500Y145175100D03*
X83417500Y145175100D03*
%TD*%
%TO.C,U4*%
X83417500Y81114900D03*
X84367500Y81114900D03*
X85317500Y81114900D03*
X85317500Y83715100D03*
X83417500Y83715100D03*
%TD*%
%TO.C,U4*%
X83417500Y19654900D03*
X84367500Y19654900D03*
X85317500Y19654900D03*
X85317500Y22255100D03*
X83417500Y22255100D03*
%TD*%
%TO.C,U4*%
X60057500Y142574900D03*
X61007500Y142574900D03*
X61957500Y142574900D03*
X61957500Y145175100D03*
X60057500Y145175100D03*
%TD*%
%TO.C,U4*%
X60057500Y81114900D03*
X61007500Y81114900D03*
X61957500Y81114900D03*
X61957500Y83715100D03*
X60057500Y83715100D03*
%TD*%
%TO.C,U4*%
X60057500Y19654900D03*
X61007500Y19654900D03*
X61957500Y19654900D03*
X61957500Y22255100D03*
X60057500Y22255100D03*
%TD*%
%TO.C,U4*%
X36697500Y142574900D03*
X37647500Y142574900D03*
X38597500Y142574900D03*
X38597500Y145175100D03*
X36697500Y145175100D03*
%TD*%
%TO.C,U4*%
X36697500Y81114900D03*
X37647500Y81114900D03*
X38597500Y81114900D03*
X38597500Y83715100D03*
X36697500Y83715100D03*
%TD*%
%TO.C,U4*%
X36697500Y19654900D03*
X37647500Y19654900D03*
X38597500Y19654900D03*
X38597500Y22255100D03*
X36697500Y22255100D03*
%TD*%
%TO.C,U4*%
X13337500Y142574900D03*
X14287500Y142574900D03*
X15237500Y142574900D03*
X15237500Y145175100D03*
X13337500Y145175100D03*
%TD*%
%TO.C,U4*%
X13337500Y81114900D03*
X14287500Y81114900D03*
X15237500Y81114900D03*
X15237500Y83715100D03*
X13337500Y83715100D03*
%TD*%
D23*
%TO.C,D4*%
X82145000Y150707500D03*
X82145000Y152282500D03*
%TD*%
%TO.C,D4*%
X82145000Y89247500D03*
X82145000Y90822500D03*
%TD*%
%TO.C,D4*%
X82145000Y27787500D03*
X82145000Y29362500D03*
%TD*%
%TO.C,D4*%
X58785000Y150707500D03*
X58785000Y152282500D03*
%TD*%
%TO.C,D4*%
X58785000Y89247500D03*
X58785000Y90822500D03*
%TD*%
%TO.C,D4*%
X58785000Y27787500D03*
X58785000Y29362500D03*
%TD*%
%TO.C,D4*%
X35425000Y150707500D03*
X35425000Y152282500D03*
%TD*%
%TO.C,D4*%
X35425000Y89247500D03*
X35425000Y90822500D03*
%TD*%
%TO.C,D4*%
X35425000Y27787500D03*
X35425000Y29362500D03*
%TD*%
%TO.C,D4*%
X12065000Y150707500D03*
X12065000Y152282500D03*
%TD*%
%TO.C,D4*%
X12065000Y89247500D03*
X12065000Y90822500D03*
%TD*%
D22*
%TO.C,SW2*%
X91815000Y129105000D03*
X87715000Y129105000D03*
X91815000Y130705000D03*
X87715000Y130705000D03*
%TD*%
%TO.C,SW2*%
X91815000Y67645000D03*
X87715000Y67645000D03*
X91815000Y69245000D03*
X87715000Y69245000D03*
%TD*%
%TO.C,SW2*%
X91815000Y6185000D03*
X87715000Y6185000D03*
X91815000Y7785000D03*
X87715000Y7785000D03*
%TD*%
%TO.C,SW2*%
X68455000Y129105000D03*
X64355000Y129105000D03*
X68455000Y130705000D03*
X64355000Y130705000D03*
%TD*%
%TO.C,SW2*%
X68455000Y67645000D03*
X64355000Y67645000D03*
X68455000Y69245000D03*
X64355000Y69245000D03*
%TD*%
%TO.C,SW2*%
X68455000Y6185000D03*
X64355000Y6185000D03*
X68455000Y7785000D03*
X64355000Y7785000D03*
%TD*%
%TO.C,SW2*%
X45095000Y129105000D03*
X40995000Y129105000D03*
X45095000Y130705000D03*
X40995000Y130705000D03*
%TD*%
%TO.C,SW2*%
X45095000Y67645000D03*
X40995000Y67645000D03*
X45095000Y69245000D03*
X40995000Y69245000D03*
%TD*%
%TO.C,SW2*%
X45095000Y6185000D03*
X40995000Y6185000D03*
X45095000Y7785000D03*
X40995000Y7785000D03*
%TD*%
%TO.C,SW2*%
X21735000Y129105000D03*
X17635000Y129105000D03*
X21735000Y130705000D03*
X17635000Y130705000D03*
%TD*%
%TO.C,SW2*%
X21735000Y67645000D03*
X17635000Y67645000D03*
X21735000Y69245000D03*
X17635000Y69245000D03*
%TD*%
D24*
%TO.C,J3*%
X77590000Y140335000D03*
X77590000Y142335000D03*
D25*
X72390000Y137935000D03*
X72390000Y144735000D03*
%TD*%
D24*
%TO.C,J3*%
X77590000Y78875000D03*
X77590000Y80875000D03*
D25*
X72390000Y76475000D03*
X72390000Y83275000D03*
%TD*%
D24*
%TO.C,J3*%
X77590000Y17415000D03*
X77590000Y19415000D03*
D25*
X72390000Y15015000D03*
X72390000Y21815000D03*
%TD*%
D24*
%TO.C,J3*%
X54230000Y140335000D03*
X54230000Y142335000D03*
D25*
X49030000Y137935000D03*
X49030000Y144735000D03*
%TD*%
D24*
%TO.C,J3*%
X54230000Y78875000D03*
X54230000Y80875000D03*
D25*
X49030000Y76475000D03*
X49030000Y83275000D03*
%TD*%
D24*
%TO.C,J3*%
X54230000Y17415000D03*
X54230000Y19415000D03*
D25*
X49030000Y15015000D03*
X49030000Y21815000D03*
%TD*%
D24*
%TO.C,J3*%
X30870000Y140335000D03*
X30870000Y142335000D03*
D25*
X25670000Y137935000D03*
X25670000Y144735000D03*
%TD*%
D24*
%TO.C,J3*%
X30870000Y78875000D03*
X30870000Y80875000D03*
D25*
X25670000Y76475000D03*
X25670000Y83275000D03*
%TD*%
D24*
%TO.C,J3*%
X30870000Y17415000D03*
X30870000Y19415000D03*
D25*
X25670000Y15015000D03*
X25670000Y21815000D03*
%TD*%
D24*
%TO.C,J3*%
X7510000Y140335000D03*
X7510000Y142335000D03*
D25*
X2310000Y137935000D03*
X2310000Y144735000D03*
%TD*%
D24*
%TO.C,J3*%
X7510000Y78875000D03*
X7510000Y80875000D03*
D25*
X2310000Y76475000D03*
X2310000Y83275000D03*
%TD*%
D26*
%TO.C,R6*%
X83542500Y139430000D03*
X85192500Y139430000D03*
%TD*%
%TO.C,R6*%
X83542500Y77970000D03*
X85192500Y77970000D03*
%TD*%
%TO.C,R6*%
X83542500Y16510000D03*
X85192500Y16510000D03*
%TD*%
%TO.C,R6*%
X60182500Y139430000D03*
X61832500Y139430000D03*
%TD*%
%TO.C,R6*%
X60182500Y77970000D03*
X61832500Y77970000D03*
%TD*%
%TO.C,R6*%
X60182500Y16510000D03*
X61832500Y16510000D03*
%TD*%
%TO.C,R6*%
X36822500Y139430000D03*
X38472500Y139430000D03*
%TD*%
%TO.C,R6*%
X36822500Y77970000D03*
X38472500Y77970000D03*
%TD*%
%TO.C,R6*%
X36822500Y16510000D03*
X38472500Y16510000D03*
%TD*%
%TO.C,R6*%
X13462500Y139430000D03*
X15112500Y139430000D03*
%TD*%
%TO.C,R6*%
X13462500Y77970000D03*
X15112500Y77970000D03*
%TD*%
%TO.C,R12*%
X75922500Y147367500D03*
X77572500Y147367500D03*
%TD*%
%TO.C,R12*%
X75922500Y85907500D03*
X77572500Y85907500D03*
%TD*%
%TO.C,R12*%
X75922500Y24447500D03*
X77572500Y24447500D03*
%TD*%
%TO.C,R12*%
X52562500Y147367500D03*
X54212500Y147367500D03*
%TD*%
%TO.C,R12*%
X52562500Y85907500D03*
X54212500Y85907500D03*
%TD*%
%TO.C,R12*%
X52562500Y24447500D03*
X54212500Y24447500D03*
%TD*%
%TO.C,R12*%
X29202500Y147367500D03*
X30852500Y147367500D03*
%TD*%
%TO.C,R12*%
X29202500Y85907500D03*
X30852500Y85907500D03*
%TD*%
%TO.C,R12*%
X29202500Y24447500D03*
X30852500Y24447500D03*
%TD*%
%TO.C,R12*%
X5842500Y147367500D03*
X7492500Y147367500D03*
%TD*%
%TO.C,R12*%
X5842500Y85907500D03*
X7492500Y85907500D03*
%TD*%
D12*
%TO.C,ST3*%
X90400000Y178800000D03*
%TD*%
%TO.C,ST3*%
X90400000Y117340000D03*
%TD*%
%TO.C,ST3*%
X90400000Y55880000D03*
%TD*%
%TO.C,ST3*%
X67040000Y178800000D03*
%TD*%
%TO.C,ST3*%
X67040000Y117340000D03*
%TD*%
%TO.C,ST3*%
X67040000Y55880000D03*
%TD*%
%TO.C,ST3*%
X43680000Y178800000D03*
%TD*%
%TO.C,ST3*%
X43680000Y117340000D03*
%TD*%
%TO.C,ST3*%
X43680000Y55880000D03*
%TD*%
%TO.C,ST3*%
X20320000Y178800000D03*
%TD*%
%TO.C,ST3*%
X20320000Y117340000D03*
%TD*%
D15*
%TO.C,D1*%
X80560000Y130827400D03*
X81510000Y130827400D03*
X82460000Y130827400D03*
X82460000Y133427600D03*
X81510000Y133427500D03*
X80560000Y133427600D03*
%TD*%
%TO.C,D1*%
X80560000Y69367400D03*
X81510000Y69367400D03*
X82460000Y69367400D03*
X82460000Y71967600D03*
X81510000Y71967500D03*
X80560000Y71967600D03*
%TD*%
%TO.C,D1*%
X80560000Y7907400D03*
X81510000Y7907400D03*
X82460000Y7907400D03*
X82460000Y10507600D03*
X81510000Y10507500D03*
X80560000Y10507600D03*
%TD*%
%TO.C,D1*%
X57200000Y130827400D03*
X58150000Y130827400D03*
X59100000Y130827400D03*
X59100000Y133427600D03*
X58150000Y133427500D03*
X57200000Y133427600D03*
%TD*%
%TO.C,D1*%
X57200000Y69367400D03*
X58150000Y69367400D03*
X59100000Y69367400D03*
X59100000Y71967600D03*
X58150000Y71967500D03*
X57200000Y71967600D03*
%TD*%
%TO.C,D1*%
X57200000Y7907400D03*
X58150000Y7907400D03*
X59100000Y7907400D03*
X59100000Y10507600D03*
X58150000Y10507500D03*
X57200000Y10507600D03*
%TD*%
%TO.C,D1*%
X33840000Y130827400D03*
X34790000Y130827400D03*
X35740000Y130827400D03*
X35740000Y133427600D03*
X34790000Y133427500D03*
X33840000Y133427600D03*
%TD*%
%TO.C,D1*%
X33840000Y69367400D03*
X34790000Y69367400D03*
X35740000Y69367400D03*
X35740000Y71967600D03*
X34790000Y71967500D03*
X33840000Y71967600D03*
%TD*%
%TO.C,D1*%
X33840000Y7907400D03*
X34790000Y7907400D03*
X35740000Y7907400D03*
X35740000Y10507600D03*
X34790000Y10507500D03*
X33840000Y10507600D03*
%TD*%
%TO.C,D1*%
X10480000Y130827400D03*
X11430000Y130827400D03*
X12380000Y130827400D03*
X12380000Y133427600D03*
X11430000Y133427500D03*
X10480000Y133427600D03*
%TD*%
%TO.C,D1*%
X10480000Y69367400D03*
X11430000Y69367400D03*
X12380000Y69367400D03*
X12380000Y71967600D03*
X11430000Y71967500D03*
X10480000Y71967600D03*
%TD*%
D27*
%TO.C,D2*%
X85405000Y150580000D03*
X86505000Y150580000D03*
X86505000Y152410000D03*
X85405000Y152410000D03*
%TD*%
%TO.C,D2*%
X85405000Y89120000D03*
X86505000Y89120000D03*
X86505000Y90950000D03*
X85405000Y90950000D03*
%TD*%
%TO.C,D2*%
X85405000Y27660000D03*
X86505000Y27660000D03*
X86505000Y29490000D03*
X85405000Y29490000D03*
%TD*%
%TO.C,D2*%
X62045000Y150580000D03*
X63145000Y150580000D03*
X63145000Y152410000D03*
X62045000Y152410000D03*
%TD*%
%TO.C,D2*%
X62045000Y89120000D03*
X63145000Y89120000D03*
X63145000Y90950000D03*
X62045000Y90950000D03*
%TD*%
%TO.C,D2*%
X62045000Y27660000D03*
X63145000Y27660000D03*
X63145000Y29490000D03*
X62045000Y29490000D03*
%TD*%
%TO.C,D2*%
X38685000Y150580000D03*
X39785000Y150580000D03*
X39785000Y152410000D03*
X38685000Y152410000D03*
%TD*%
%TO.C,D2*%
X38685000Y89120000D03*
X39785000Y89120000D03*
X39785000Y90950000D03*
X38685000Y90950000D03*
%TD*%
%TO.C,D2*%
X38685000Y27660000D03*
X39785000Y27660000D03*
X39785000Y29490000D03*
X38685000Y29490000D03*
%TD*%
%TO.C,D2*%
X15325000Y150580000D03*
X16425000Y150580000D03*
X16425000Y152410000D03*
X15325000Y152410000D03*
%TD*%
%TO.C,D2*%
X15325000Y89120000D03*
X16425000Y89120000D03*
X16425000Y90950000D03*
X15325000Y90950000D03*
%TD*%
D28*
%TO.C,J2*%
X78620000Y127815000D03*
X84400000Y127815000D03*
D29*
X80260000Y128920000D03*
X81260000Y128920000D03*
D30*
X81760000Y128920000D03*
X82760000Y128920000D03*
X83260000Y128920000D03*
X82260000Y128920000D03*
D29*
X80760000Y128920000D03*
X79760000Y128920000D03*
D31*
X78285000Y128920000D03*
D32*
X84735000Y128920000D03*
D33*
X77192000Y124165000D03*
D34*
X77192000Y128345000D03*
X85828000Y128345000D03*
D33*
X85828000Y124165000D03*
D31*
X79060000Y128920000D03*
D32*
X83960000Y128920000D03*
%TD*%
D28*
%TO.C,J2*%
X78620000Y66355000D03*
X84400000Y66355000D03*
D29*
X80260000Y67460000D03*
X81260000Y67460000D03*
D30*
X81760000Y67460000D03*
X82760000Y67460000D03*
X83260000Y67460000D03*
X82260000Y67460000D03*
D29*
X80760000Y67460000D03*
X79760000Y67460000D03*
D31*
X78285000Y67460000D03*
D32*
X84735000Y67460000D03*
D33*
X77192000Y62705000D03*
D34*
X77192000Y66885000D03*
X85828000Y66885000D03*
D33*
X85828000Y62705000D03*
D31*
X79060000Y67460000D03*
D32*
X83960000Y67460000D03*
%TD*%
D28*
%TO.C,J2*%
X78620000Y4895000D03*
X84400000Y4895000D03*
D29*
X80260000Y6000000D03*
X81260000Y6000000D03*
D30*
X81760000Y6000000D03*
X82760000Y6000000D03*
X83260000Y6000000D03*
X82260000Y6000000D03*
D29*
X80760000Y6000000D03*
X79760000Y6000000D03*
D31*
X78285000Y6000000D03*
D32*
X84735000Y6000000D03*
D33*
X77192000Y1245000D03*
D34*
X77192000Y5425000D03*
X85828000Y5425000D03*
D33*
X85828000Y1245000D03*
D31*
X79060000Y6000000D03*
D32*
X83960000Y6000000D03*
%TD*%
D28*
%TO.C,J2*%
X55260000Y127815000D03*
X61040000Y127815000D03*
D29*
X56900000Y128920000D03*
X57900000Y128920000D03*
D30*
X58400000Y128920000D03*
X59400000Y128920000D03*
X59900000Y128920000D03*
X58900000Y128920000D03*
D29*
X57400000Y128920000D03*
X56400000Y128920000D03*
D31*
X54925000Y128920000D03*
D32*
X61375000Y128920000D03*
D33*
X53832000Y124165000D03*
D34*
X53832000Y128345000D03*
X62468000Y128345000D03*
D33*
X62468000Y124165000D03*
D31*
X55700000Y128920000D03*
D32*
X60600000Y128920000D03*
%TD*%
D28*
%TO.C,J2*%
X55260000Y66355000D03*
X61040000Y66355000D03*
D29*
X56900000Y67460000D03*
X57900000Y67460000D03*
D30*
X58400000Y67460000D03*
X59400000Y67460000D03*
X59900000Y67460000D03*
X58900000Y67460000D03*
D29*
X57400000Y67460000D03*
X56400000Y67460000D03*
D31*
X54925000Y67460000D03*
D32*
X61375000Y67460000D03*
D33*
X53832000Y62705000D03*
D34*
X53832000Y66885000D03*
X62468000Y66885000D03*
D33*
X62468000Y62705000D03*
D31*
X55700000Y67460000D03*
D32*
X60600000Y67460000D03*
%TD*%
D28*
%TO.C,J2*%
X55260000Y4895000D03*
X61040000Y4895000D03*
D29*
X56900000Y6000000D03*
X57900000Y6000000D03*
D30*
X58400000Y6000000D03*
X59400000Y6000000D03*
X59900000Y6000000D03*
X58900000Y6000000D03*
D29*
X57400000Y6000000D03*
X56400000Y6000000D03*
D31*
X54925000Y6000000D03*
D32*
X61375000Y6000000D03*
D33*
X53832000Y1245000D03*
D34*
X53832000Y5425000D03*
X62468000Y5425000D03*
D33*
X62468000Y1245000D03*
D31*
X55700000Y6000000D03*
D32*
X60600000Y6000000D03*
%TD*%
D28*
%TO.C,J2*%
X31900000Y127815000D03*
X37680000Y127815000D03*
D29*
X33540000Y128920000D03*
X34540000Y128920000D03*
D30*
X35040000Y128920000D03*
X36040000Y128920000D03*
X36540000Y128920000D03*
X35540000Y128920000D03*
D29*
X34040000Y128920000D03*
X33040000Y128920000D03*
D31*
X31565000Y128920000D03*
D32*
X38015000Y128920000D03*
D33*
X30472000Y124165000D03*
D34*
X30472000Y128345000D03*
X39108000Y128345000D03*
D33*
X39108000Y124165000D03*
D31*
X32340000Y128920000D03*
D32*
X37240000Y128920000D03*
%TD*%
D28*
%TO.C,J2*%
X31900000Y66355000D03*
X37680000Y66355000D03*
D29*
X33540000Y67460000D03*
X34540000Y67460000D03*
D30*
X35040000Y67460000D03*
X36040000Y67460000D03*
X36540000Y67460000D03*
X35540000Y67460000D03*
D29*
X34040000Y67460000D03*
X33040000Y67460000D03*
D31*
X31565000Y67460000D03*
D32*
X38015000Y67460000D03*
D33*
X30472000Y62705000D03*
D34*
X30472000Y66885000D03*
X39108000Y66885000D03*
D33*
X39108000Y62705000D03*
D31*
X32340000Y67460000D03*
D32*
X37240000Y67460000D03*
%TD*%
D28*
%TO.C,J2*%
X31900000Y4895000D03*
X37680000Y4895000D03*
D29*
X33540000Y6000000D03*
X34540000Y6000000D03*
D30*
X35040000Y6000000D03*
X36040000Y6000000D03*
X36540000Y6000000D03*
X35540000Y6000000D03*
D29*
X34040000Y6000000D03*
X33040000Y6000000D03*
D31*
X31565000Y6000000D03*
D32*
X38015000Y6000000D03*
D33*
X30472000Y1245000D03*
D34*
X30472000Y5425000D03*
X39108000Y5425000D03*
D33*
X39108000Y1245000D03*
D31*
X32340000Y6000000D03*
D32*
X37240000Y6000000D03*
%TD*%
D28*
%TO.C,J2*%
X8540000Y127815000D03*
X14320000Y127815000D03*
D29*
X10180000Y128920000D03*
X11180000Y128920000D03*
D30*
X11680000Y128920000D03*
X12680000Y128920000D03*
X13180000Y128920000D03*
X12180000Y128920000D03*
D29*
X10680000Y128920000D03*
X9680000Y128920000D03*
D31*
X8205000Y128920000D03*
D32*
X14655000Y128920000D03*
D33*
X7112000Y124165000D03*
D34*
X7112000Y128345000D03*
X15748000Y128345000D03*
D33*
X15748000Y124165000D03*
D31*
X8980000Y128920000D03*
D32*
X13880000Y128920000D03*
%TD*%
D28*
%TO.C,J2*%
X8540000Y66355000D03*
X14320000Y66355000D03*
D29*
X10180000Y67460000D03*
X11180000Y67460000D03*
D30*
X11680000Y67460000D03*
X12680000Y67460000D03*
X13180000Y67460000D03*
X12180000Y67460000D03*
D29*
X10680000Y67460000D03*
X9680000Y67460000D03*
D31*
X8205000Y67460000D03*
D32*
X14655000Y67460000D03*
D33*
X7112000Y62705000D03*
D34*
X7112000Y66885000D03*
X15748000Y66885000D03*
D33*
X15748000Y62705000D03*
D31*
X8980000Y67460000D03*
D32*
X13880000Y67460000D03*
%TD*%
D35*
%TO.C,R13*%
X78970000Y152320000D03*
X78970000Y150670000D03*
%TD*%
%TO.C,R13*%
X78970000Y90860000D03*
X78970000Y89210000D03*
%TD*%
%TO.C,R13*%
X78970000Y29400000D03*
X78970000Y27750000D03*
%TD*%
%TO.C,R13*%
X55610000Y152320000D03*
X55610000Y150670000D03*
%TD*%
%TO.C,R13*%
X55610000Y90860000D03*
X55610000Y89210000D03*
%TD*%
%TO.C,R13*%
X55610000Y29400000D03*
X55610000Y27750000D03*
%TD*%
%TO.C,R13*%
X32250000Y152320000D03*
X32250000Y150670000D03*
%TD*%
%TO.C,R13*%
X32250000Y90860000D03*
X32250000Y89210000D03*
%TD*%
%TO.C,R13*%
X32250000Y29400000D03*
X32250000Y27750000D03*
%TD*%
%TO.C,R13*%
X8890000Y152320000D03*
X8890000Y150670000D03*
%TD*%
%TO.C,R13*%
X8890000Y90860000D03*
X8890000Y89210000D03*
%TD*%
D23*
%TO.C,D6*%
X80557500Y150707500D03*
X80557500Y152282500D03*
%TD*%
%TO.C,D6*%
X80557500Y89247500D03*
X80557500Y90822500D03*
%TD*%
%TO.C,D6*%
X80557500Y27787500D03*
X80557500Y29362500D03*
%TD*%
%TO.C,D6*%
X57197500Y150707500D03*
X57197500Y152282500D03*
%TD*%
%TO.C,D6*%
X57197500Y89247500D03*
X57197500Y90822500D03*
%TD*%
%TO.C,D6*%
X57197500Y27787500D03*
X57197500Y29362500D03*
%TD*%
%TO.C,D6*%
X33837500Y150707500D03*
X33837500Y152282500D03*
%TD*%
%TO.C,D6*%
X33837500Y89247500D03*
X33837500Y90822500D03*
%TD*%
%TO.C,D6*%
X33837500Y27787500D03*
X33837500Y29362500D03*
%TD*%
%TO.C,D6*%
X10477500Y150707500D03*
X10477500Y152282500D03*
%TD*%
%TO.C,D6*%
X10477500Y89247500D03*
X10477500Y90822500D03*
%TD*%
%TO.C,D5*%
X83732500Y150707500D03*
X83732500Y152282500D03*
%TD*%
%TO.C,D5*%
X83732500Y89247500D03*
X83732500Y90822500D03*
%TD*%
%TO.C,D5*%
X83732500Y27787500D03*
X83732500Y29362500D03*
%TD*%
%TO.C,D5*%
X60372500Y150707500D03*
X60372500Y152282500D03*
%TD*%
%TO.C,D5*%
X60372500Y89247500D03*
X60372500Y90822500D03*
%TD*%
%TO.C,D5*%
X60372500Y27787500D03*
X60372500Y29362500D03*
%TD*%
%TO.C,D5*%
X37012500Y150707500D03*
X37012500Y152282500D03*
%TD*%
%TO.C,D5*%
X37012500Y89247500D03*
X37012500Y90822500D03*
%TD*%
%TO.C,D5*%
X37012500Y27787500D03*
X37012500Y29362500D03*
%TD*%
%TO.C,D5*%
X13652500Y150707500D03*
X13652500Y152282500D03*
%TD*%
%TO.C,D5*%
X13652500Y89247500D03*
X13652500Y90822500D03*
%TD*%
D36*
%TO.C,FID1*%
X70715000Y176895000D03*
%TD*%
%TO.C,FID1*%
X70715000Y115435000D03*
%TD*%
%TO.C,FID1*%
X70715000Y53975000D03*
%TD*%
%TO.C,FID1*%
X47355000Y176895000D03*
%TD*%
%TO.C,FID1*%
X47355000Y115435000D03*
%TD*%
%TO.C,FID1*%
X47355000Y53975000D03*
%TD*%
%TO.C,FID1*%
X23995000Y176895000D03*
%TD*%
%TO.C,FID1*%
X23995000Y115435000D03*
%TD*%
%TO.C,FID1*%
X23995000Y53975000D03*
%TD*%
%TO.C,FID1*%
X635000Y176895000D03*
%TD*%
%TO.C,FID1*%
X635000Y115435000D03*
%TD*%
%TO.C,FID4*%
X88495000Y123555000D03*
%TD*%
%TO.C,FID4*%
X88495000Y62095000D03*
%TD*%
%TO.C,FID4*%
X88495000Y635000D03*
%TD*%
%TO.C,FID4*%
X65135000Y123555000D03*
%TD*%
%TO.C,FID4*%
X65135000Y62095000D03*
%TD*%
%TO.C,FID4*%
X65135000Y635000D03*
%TD*%
%TO.C,FID4*%
X41775000Y123555000D03*
%TD*%
%TO.C,FID4*%
X41775000Y62095000D03*
%TD*%
%TO.C,FID4*%
X41775000Y635000D03*
%TD*%
%TO.C,FID4*%
X18415000Y123555000D03*
%TD*%
%TO.C,FID4*%
X18415000Y62095000D03*
%TD*%
D37*
%TO.C,U7*%
X82260000Y137947500D03*
X81760000Y137947500D03*
X81260000Y137947500D03*
X80760000Y137947500D03*
X80760000Y136467500D03*
X81260000Y136467500D03*
X81760000Y136467500D03*
X82260000Y136467500D03*
%TD*%
%TO.C,U7*%
X82260000Y76487500D03*
X81760000Y76487500D03*
X81260000Y76487500D03*
X80760000Y76487500D03*
X80760000Y75007500D03*
X81260000Y75007500D03*
X81760000Y75007500D03*
X82260000Y75007500D03*
%TD*%
%TO.C,U7*%
X82260000Y15027500D03*
X81760000Y15027500D03*
X81260000Y15027500D03*
X80760000Y15027500D03*
X80760000Y13547500D03*
X81260000Y13547500D03*
X81760000Y13547500D03*
X82260000Y13547500D03*
%TD*%
%TO.C,U7*%
X58900000Y137947500D03*
X58400000Y137947500D03*
X57900000Y137947500D03*
X57400000Y137947500D03*
X57400000Y136467500D03*
X57900000Y136467500D03*
X58400000Y136467500D03*
X58900000Y136467500D03*
%TD*%
%TO.C,U7*%
X58900000Y76487500D03*
X58400000Y76487500D03*
X57900000Y76487500D03*
X57400000Y76487500D03*
X57400000Y75007500D03*
X57900000Y75007500D03*
X58400000Y75007500D03*
X58900000Y75007500D03*
%TD*%
%TO.C,U7*%
X58900000Y15027500D03*
X58400000Y15027500D03*
X57900000Y15027500D03*
X57400000Y15027500D03*
X57400000Y13547500D03*
X57900000Y13547500D03*
X58400000Y13547500D03*
X58900000Y13547500D03*
%TD*%
%TO.C,U7*%
X35540000Y137947500D03*
X35040000Y137947500D03*
X34540000Y137947500D03*
X34040000Y137947500D03*
X34040000Y136467500D03*
X34540000Y136467500D03*
X35040000Y136467500D03*
X35540000Y136467500D03*
%TD*%
%TO.C,U7*%
X35540000Y76487500D03*
X35040000Y76487500D03*
X34540000Y76487500D03*
X34040000Y76487500D03*
X34040000Y75007500D03*
X34540000Y75007500D03*
X35040000Y75007500D03*
X35540000Y75007500D03*
%TD*%
%TO.C,U7*%
X35540000Y15027500D03*
X35040000Y15027500D03*
X34540000Y15027500D03*
X34040000Y15027500D03*
X34040000Y13547500D03*
X34540000Y13547500D03*
X35040000Y13547500D03*
X35540000Y13547500D03*
%TD*%
%TO.C,U7*%
X12180000Y137947500D03*
X11680000Y137947500D03*
X11180000Y137947500D03*
X10680000Y137947500D03*
X10680000Y136467500D03*
X11180000Y136467500D03*
X11680000Y136467500D03*
X12180000Y136467500D03*
%TD*%
%TO.C,U7*%
X12180000Y76487500D03*
X11680000Y76487500D03*
X11180000Y76487500D03*
X10680000Y76487500D03*
X10680000Y75007500D03*
X11180000Y75007500D03*
X11680000Y75007500D03*
X12180000Y75007500D03*
%TD*%
D26*
%TO.C,R3*%
X77510000Y130540000D03*
X79160000Y130540000D03*
%TD*%
%TO.C,R3*%
X77510000Y69080000D03*
X79160000Y69080000D03*
%TD*%
%TO.C,R3*%
X77510000Y7620000D03*
X79160000Y7620000D03*
%TD*%
%TO.C,R3*%
X54150000Y130540000D03*
X55800000Y130540000D03*
%TD*%
%TO.C,R3*%
X54150000Y69080000D03*
X55800000Y69080000D03*
%TD*%
%TO.C,R3*%
X54150000Y7620000D03*
X55800000Y7620000D03*
%TD*%
%TO.C,R3*%
X30790000Y130540000D03*
X32440000Y130540000D03*
%TD*%
%TO.C,R3*%
X30790000Y69080000D03*
X32440000Y69080000D03*
%TD*%
%TO.C,R3*%
X30790000Y7620000D03*
X32440000Y7620000D03*
%TD*%
%TO.C,R3*%
X7430000Y130540000D03*
X9080000Y130540000D03*
%TD*%
%TO.C,R3*%
X7430000Y69080000D03*
X9080000Y69080000D03*
%TD*%
D38*
%TO.C,C8*%
X77522500Y148955000D03*
X75972500Y148955000D03*
%TD*%
%TO.C,C8*%
X77522500Y87495000D03*
X75972500Y87495000D03*
%TD*%
%TO.C,C8*%
X77522500Y26035000D03*
X75972500Y26035000D03*
%TD*%
%TO.C,C8*%
X54162500Y148955000D03*
X52612500Y148955000D03*
%TD*%
%TO.C,C8*%
X54162500Y87495000D03*
X52612500Y87495000D03*
%TD*%
%TO.C,C8*%
X54162500Y26035000D03*
X52612500Y26035000D03*
%TD*%
%TO.C,C8*%
X30802500Y148955000D03*
X29252500Y148955000D03*
%TD*%
%TO.C,C8*%
X30802500Y87495000D03*
X29252500Y87495000D03*
%TD*%
%TO.C,C8*%
X30802500Y26035000D03*
X29252500Y26035000D03*
%TD*%
%TO.C,C8*%
X7442500Y148955000D03*
X5892500Y148955000D03*
%TD*%
%TO.C,C8*%
X7442500Y87495000D03*
X5892500Y87495000D03*
%TD*%
D12*
%TO.C,ST4*%
X90400000Y125460000D03*
%TD*%
%TO.C,ST4*%
X90400000Y64000000D03*
%TD*%
%TO.C,ST4*%
X90400000Y2540000D03*
%TD*%
%TO.C,ST4*%
X67040000Y125460000D03*
%TD*%
%TO.C,ST4*%
X67040000Y64000000D03*
%TD*%
%TO.C,ST4*%
X67040000Y2540000D03*
%TD*%
%TO.C,ST4*%
X43680000Y125460000D03*
%TD*%
%TO.C,ST4*%
X43680000Y64000000D03*
%TD*%
%TO.C,ST4*%
X43680000Y2540000D03*
%TD*%
%TO.C,ST4*%
X20320000Y125460000D03*
%TD*%
%TO.C,ST4*%
X20320000Y64000000D03*
%TD*%
D11*
%TO.C,U3*%
X71350000Y174990000D03*
X71350000Y172450000D03*
X71350000Y169910000D03*
X71350000Y167370000D03*
X71350000Y164830000D03*
X71350000Y162290000D03*
X71350000Y159750000D03*
X71350000Y157210000D03*
X71350000Y154670000D03*
X71350000Y152130000D03*
X71350000Y149590000D03*
X71350000Y147050000D03*
X91670000Y174990000D03*
X91670000Y172450000D03*
X91670000Y169910000D03*
X91670000Y167370000D03*
X91670000Y164830000D03*
X91670000Y162290000D03*
X91670000Y159750000D03*
X91670000Y157210000D03*
X91670000Y154670000D03*
X91670000Y152130000D03*
X91670000Y149590000D03*
X91670000Y147050000D03*
X91670000Y144510000D03*
X91670000Y141970000D03*
X91670000Y139430000D03*
X91670000Y136890000D03*
%TD*%
%TO.C,U3*%
X71350000Y113530000D03*
X71350000Y110990000D03*
X71350000Y108450000D03*
X71350000Y105910000D03*
X71350000Y103370000D03*
X71350000Y100830000D03*
X71350000Y98290000D03*
X71350000Y95750000D03*
X71350000Y93210000D03*
X71350000Y90670000D03*
X71350000Y88130000D03*
X71350000Y85590000D03*
X91670000Y113530000D03*
X91670000Y110990000D03*
X91670000Y108450000D03*
X91670000Y105910000D03*
X91670000Y103370000D03*
X91670000Y100830000D03*
X91670000Y98290000D03*
X91670000Y95750000D03*
X91670000Y93210000D03*
X91670000Y90670000D03*
X91670000Y88130000D03*
X91670000Y85590000D03*
X91670000Y83050000D03*
X91670000Y80510000D03*
X91670000Y77970000D03*
X91670000Y75430000D03*
%TD*%
%TO.C,U3*%
X71350000Y52070000D03*
X71350000Y49530000D03*
X71350000Y46990000D03*
X71350000Y44450000D03*
X71350000Y41910000D03*
X71350000Y39370000D03*
X71350000Y36830000D03*
X71350000Y34290000D03*
X71350000Y31750000D03*
X71350000Y29210000D03*
X71350000Y26670000D03*
X71350000Y24130000D03*
X91670000Y52070000D03*
X91670000Y49530000D03*
X91670000Y46990000D03*
X91670000Y44450000D03*
X91670000Y41910000D03*
X91670000Y39370000D03*
X91670000Y36830000D03*
X91670000Y34290000D03*
X91670000Y31750000D03*
X91670000Y29210000D03*
X91670000Y26670000D03*
X91670000Y24130000D03*
X91670000Y21590000D03*
X91670000Y19050000D03*
X91670000Y16510000D03*
X91670000Y13970000D03*
%TD*%
%TO.C,U3*%
X47990000Y174990000D03*
X47990000Y172450000D03*
X47990000Y169910000D03*
X47990000Y167370000D03*
X47990000Y164830000D03*
X47990000Y162290000D03*
X47990000Y159750000D03*
X47990000Y157210000D03*
X47990000Y154670000D03*
X47990000Y152130000D03*
X47990000Y149590000D03*
X47990000Y147050000D03*
X68310000Y174990000D03*
X68310000Y172450000D03*
X68310000Y169910000D03*
X68310000Y167370000D03*
X68310000Y164830000D03*
X68310000Y162290000D03*
X68310000Y159750000D03*
X68310000Y157210000D03*
X68310000Y154670000D03*
X68310000Y152130000D03*
X68310000Y149590000D03*
X68310000Y147050000D03*
X68310000Y144510000D03*
X68310000Y141970000D03*
X68310000Y139430000D03*
X68310000Y136890000D03*
%TD*%
%TO.C,U3*%
X47990000Y113530000D03*
X47990000Y110990000D03*
X47990000Y108450000D03*
X47990000Y105910000D03*
X47990000Y103370000D03*
X47990000Y100830000D03*
X47990000Y98290000D03*
X47990000Y95750000D03*
X47990000Y93210000D03*
X47990000Y90670000D03*
X47990000Y88130000D03*
X47990000Y85590000D03*
X68310000Y113530000D03*
X68310000Y110990000D03*
X68310000Y108450000D03*
X68310000Y105910000D03*
X68310000Y103370000D03*
X68310000Y100830000D03*
X68310000Y98290000D03*
X68310000Y95750000D03*
X68310000Y93210000D03*
X68310000Y90670000D03*
X68310000Y88130000D03*
X68310000Y85590000D03*
X68310000Y83050000D03*
X68310000Y80510000D03*
X68310000Y77970000D03*
X68310000Y75430000D03*
%TD*%
%TO.C,U3*%
X47990000Y52070000D03*
X47990000Y49530000D03*
X47990000Y46990000D03*
X47990000Y44450000D03*
X47990000Y41910000D03*
X47990000Y39370000D03*
X47990000Y36830000D03*
X47990000Y34290000D03*
X47990000Y31750000D03*
X47990000Y29210000D03*
X47990000Y26670000D03*
X47990000Y24130000D03*
X68310000Y52070000D03*
X68310000Y49530000D03*
X68310000Y46990000D03*
X68310000Y44450000D03*
X68310000Y41910000D03*
X68310000Y39370000D03*
X68310000Y36830000D03*
X68310000Y34290000D03*
X68310000Y31750000D03*
X68310000Y29210000D03*
X68310000Y26670000D03*
X68310000Y24130000D03*
X68310000Y21590000D03*
X68310000Y19050000D03*
X68310000Y16510000D03*
X68310000Y13970000D03*
%TD*%
%TO.C,U3*%
X24630000Y174990000D03*
X24630000Y172450000D03*
X24630000Y169910000D03*
X24630000Y167370000D03*
X24630000Y164830000D03*
X24630000Y162290000D03*
X24630000Y159750000D03*
X24630000Y157210000D03*
X24630000Y154670000D03*
X24630000Y152130000D03*
X24630000Y149590000D03*
X24630000Y147050000D03*
X44950000Y174990000D03*
X44950000Y172450000D03*
X44950000Y169910000D03*
X44950000Y167370000D03*
X44950000Y164830000D03*
X44950000Y162290000D03*
X44950000Y159750000D03*
X44950000Y157210000D03*
X44950000Y154670000D03*
X44950000Y152130000D03*
X44950000Y149590000D03*
X44950000Y147050000D03*
X44950000Y144510000D03*
X44950000Y141970000D03*
X44950000Y139430000D03*
X44950000Y136890000D03*
%TD*%
%TO.C,U3*%
X24630000Y113530000D03*
X24630000Y110990000D03*
X24630000Y108450000D03*
X24630000Y105910000D03*
X24630000Y103370000D03*
X24630000Y100830000D03*
X24630000Y98290000D03*
X24630000Y95750000D03*
X24630000Y93210000D03*
X24630000Y90670000D03*
X24630000Y88130000D03*
X24630000Y85590000D03*
X44950000Y113530000D03*
X44950000Y110990000D03*
X44950000Y108450000D03*
X44950000Y105910000D03*
X44950000Y103370000D03*
X44950000Y100830000D03*
X44950000Y98290000D03*
X44950000Y95750000D03*
X44950000Y93210000D03*
X44950000Y90670000D03*
X44950000Y88130000D03*
X44950000Y85590000D03*
X44950000Y83050000D03*
X44950000Y80510000D03*
X44950000Y77970000D03*
X44950000Y75430000D03*
%TD*%
%TO.C,U3*%
X24630000Y52070000D03*
X24630000Y49530000D03*
X24630000Y46990000D03*
X24630000Y44450000D03*
X24630000Y41910000D03*
X24630000Y39370000D03*
X24630000Y36830000D03*
X24630000Y34290000D03*
X24630000Y31750000D03*
X24630000Y29210000D03*
X24630000Y26670000D03*
X24630000Y24130000D03*
X44950000Y52070000D03*
X44950000Y49530000D03*
X44950000Y46990000D03*
X44950000Y44450000D03*
X44950000Y41910000D03*
X44950000Y39370000D03*
X44950000Y36830000D03*
X44950000Y34290000D03*
X44950000Y31750000D03*
X44950000Y29210000D03*
X44950000Y26670000D03*
X44950000Y24130000D03*
X44950000Y21590000D03*
X44950000Y19050000D03*
X44950000Y16510000D03*
X44950000Y13970000D03*
%TD*%
%TO.C,U3*%
X1270000Y174990000D03*
X1270000Y172450000D03*
X1270000Y169910000D03*
X1270000Y167370000D03*
X1270000Y164830000D03*
X1270000Y162290000D03*
X1270000Y159750000D03*
X1270000Y157210000D03*
X1270000Y154670000D03*
X1270000Y152130000D03*
X1270000Y149590000D03*
X1270000Y147050000D03*
X21590000Y174990000D03*
X21590000Y172450000D03*
X21590000Y169910000D03*
X21590000Y167370000D03*
X21590000Y164830000D03*
X21590000Y162290000D03*
X21590000Y159750000D03*
X21590000Y157210000D03*
X21590000Y154670000D03*
X21590000Y152130000D03*
X21590000Y149590000D03*
X21590000Y147050000D03*
X21590000Y144510000D03*
X21590000Y141970000D03*
X21590000Y139430000D03*
X21590000Y136890000D03*
%TD*%
%TO.C,U3*%
X1270000Y113530000D03*
X1270000Y110990000D03*
X1270000Y108450000D03*
X1270000Y105910000D03*
X1270000Y103370000D03*
X1270000Y100830000D03*
X1270000Y98290000D03*
X1270000Y95750000D03*
X1270000Y93210000D03*
X1270000Y90670000D03*
X1270000Y88130000D03*
X1270000Y85590000D03*
X21590000Y113530000D03*
X21590000Y110990000D03*
X21590000Y108450000D03*
X21590000Y105910000D03*
X21590000Y103370000D03*
X21590000Y100830000D03*
X21590000Y98290000D03*
X21590000Y95750000D03*
X21590000Y93210000D03*
X21590000Y90670000D03*
X21590000Y88130000D03*
X21590000Y85590000D03*
X21590000Y83050000D03*
X21590000Y80510000D03*
X21590000Y77970000D03*
X21590000Y75430000D03*
%TD*%
D20*
%TO.C,R2*%
X85510000Y130540000D03*
X83860000Y130540000D03*
%TD*%
%TO.C,R2*%
X85510000Y69080000D03*
X83860000Y69080000D03*
%TD*%
%TO.C,R2*%
X85510000Y7620000D03*
X83860000Y7620000D03*
%TD*%
%TO.C,R2*%
X62150000Y130540000D03*
X60500000Y130540000D03*
%TD*%
%TO.C,R2*%
X62150000Y69080000D03*
X60500000Y69080000D03*
%TD*%
%TO.C,R2*%
X62150000Y7620000D03*
X60500000Y7620000D03*
%TD*%
%TO.C,R2*%
X38790000Y130540000D03*
X37140000Y130540000D03*
%TD*%
%TO.C,R2*%
X38790000Y69080000D03*
X37140000Y69080000D03*
%TD*%
%TO.C,R2*%
X38790000Y7620000D03*
X37140000Y7620000D03*
%TD*%
%TO.C,R2*%
X15430000Y130540000D03*
X13780000Y130540000D03*
%TD*%
%TO.C,R2*%
X15430000Y69080000D03*
X13780000Y69080000D03*
%TD*%
%TO.C,R2*%
X15430000Y7620000D03*
X13780000Y7620000D03*
%TD*%
D11*
%TO.C,U3*%
X1270000Y52070000D03*
X1270000Y49530000D03*
X1270000Y46990000D03*
X1270000Y44450000D03*
X1270000Y41910000D03*
X1270000Y39370000D03*
X1270000Y36830000D03*
X1270000Y34290000D03*
X1270000Y31750000D03*
X1270000Y29210000D03*
X1270000Y26670000D03*
X1270000Y24130000D03*
X21590000Y52070000D03*
X21590000Y49530000D03*
X21590000Y46990000D03*
X21590000Y44450000D03*
X21590000Y41910000D03*
X21590000Y39370000D03*
X21590000Y36830000D03*
X21590000Y34290000D03*
X21590000Y31750000D03*
X21590000Y29210000D03*
X21590000Y26670000D03*
X21590000Y24130000D03*
X21590000Y21590000D03*
X21590000Y19050000D03*
X21590000Y16510000D03*
X21590000Y13970000D03*
%TD*%
D12*
%TO.C,ST4*%
X20320000Y2540000D03*
%TD*%
D38*
%TO.C,C8*%
X7442500Y26035000D03*
X5892500Y26035000D03*
%TD*%
D26*
%TO.C,R3*%
X7430000Y7620000D03*
X9080000Y7620000D03*
%TD*%
D37*
%TO.C,U7*%
X12180000Y15027500D03*
X11680000Y15027500D03*
X11180000Y15027500D03*
X10680000Y15027500D03*
X10680000Y13547500D03*
X11180000Y13547500D03*
X11680000Y13547500D03*
X12180000Y13547500D03*
%TD*%
D36*
%TO.C,FID4*%
X18415000Y635000D03*
%TD*%
%TO.C,FID1*%
X635000Y53975000D03*
%TD*%
D23*
%TO.C,D5*%
X13652500Y27787500D03*
X13652500Y29362500D03*
%TD*%
%TO.C,D6*%
X10477500Y27787500D03*
X10477500Y29362500D03*
%TD*%
D35*
%TO.C,R13*%
X8890000Y29400000D03*
X8890000Y27750000D03*
%TD*%
D28*
%TO.C,J2*%
X8540000Y4895000D03*
X14320000Y4895000D03*
D29*
X10180000Y6000000D03*
X11180000Y6000000D03*
D30*
X11680000Y6000000D03*
X12680000Y6000000D03*
X13180000Y6000000D03*
X12180000Y6000000D03*
D29*
X10680000Y6000000D03*
X9680000Y6000000D03*
D31*
X8205000Y6000000D03*
D32*
X14655000Y6000000D03*
D33*
X7112000Y1245000D03*
D34*
X7112000Y5425000D03*
X15748000Y5425000D03*
D33*
X15748000Y1245000D03*
D31*
X8980000Y6000000D03*
D32*
X13880000Y6000000D03*
%TD*%
D27*
%TO.C,D2*%
X15325000Y27660000D03*
X16425000Y27660000D03*
X16425000Y29490000D03*
X15325000Y29490000D03*
%TD*%
D15*
%TO.C,D1*%
X10480000Y7907400D03*
X11430000Y7907400D03*
X12380000Y7907400D03*
X12380000Y10507600D03*
X11430000Y10507500D03*
X10480000Y10507600D03*
%TD*%
D12*
%TO.C,ST3*%
X20320000Y55880000D03*
%TD*%
D26*
%TO.C,R12*%
X5842500Y24447500D03*
X7492500Y24447500D03*
%TD*%
%TO.C,R6*%
X13462500Y16510000D03*
X15112500Y16510000D03*
%TD*%
D24*
%TO.C,J3*%
X7510000Y17415000D03*
X7510000Y19415000D03*
D25*
X2310000Y15015000D03*
X2310000Y21815000D03*
%TD*%
D22*
%TO.C,SW2*%
X21735000Y6185000D03*
X17635000Y6185000D03*
X21735000Y7785000D03*
X17635000Y7785000D03*
%TD*%
D23*
%TO.C,D4*%
X12065000Y27787500D03*
X12065000Y29362500D03*
%TD*%
D15*
%TO.C,U4*%
X13337500Y19654900D03*
X14287500Y19654900D03*
X15237500Y19654900D03*
X15237500Y22255100D03*
X13337500Y22255100D03*
%TD*%
D21*
%TO.C,C4*%
X13512500Y18097500D03*
X15062500Y18097500D03*
%TD*%
D22*
%TO.C,SW1*%
X21735000Y10312500D03*
X17635000Y10312500D03*
X21735000Y11912500D03*
X17635000Y11912500D03*
%TD*%
D21*
%TO.C,C5*%
X13512500Y23812500D03*
X15062500Y23812500D03*
%TD*%
D20*
%TO.C,R5*%
X9080000Y9207500D03*
X7430000Y9207500D03*
%TD*%
D12*
%TO.C,ST1*%
X2540000Y55880000D03*
%TD*%
D18*
%TO.C,J1*%
X5080000Y11025000D03*
X5080000Y10025000D03*
X5080000Y9025000D03*
X5080000Y8025000D03*
D19*
X1405000Y6725000D03*
X1405000Y12325000D03*
%TD*%
D16*
%TO.C,U6*%
X5917500Y27585000D03*
X6417500Y27585000D03*
X6917500Y27585000D03*
X7417500Y27585000D03*
X7417500Y29565000D03*
X6917500Y29565000D03*
X6417500Y29565000D03*
X5917500Y29565000D03*
D17*
X6667500Y28575000D03*
%TD*%
D15*
%TO.C,U5*%
X9337000Y22194900D03*
X10287000Y22194900D03*
X11237000Y22194900D03*
X11237000Y24795100D03*
X9337000Y24795100D03*
%TD*%
D13*
%TO.C,U1*%
X3180000Y50210000D03*
X3180000Y48940000D03*
X3180000Y47670000D03*
X3180000Y46400000D03*
X3180000Y45130000D03*
X3180000Y43860000D03*
X3180000Y42590000D03*
X3180000Y41320000D03*
X3180000Y40050000D03*
X3180000Y38780000D03*
X3180000Y37510000D03*
X3180000Y36240000D03*
X3180000Y34970000D03*
X3180000Y33700000D03*
X19680000Y33700000D03*
X19680000Y34970000D03*
X19680000Y36240000D03*
X19680000Y37510000D03*
X19680000Y38780000D03*
X19680000Y40050000D03*
X19680000Y41320000D03*
X19680000Y42590000D03*
X19680000Y43860000D03*
X19680000Y45130000D03*
X19680000Y46400000D03*
X19680000Y47670000D03*
X19680000Y48940000D03*
X19680000Y50210000D03*
D14*
X10559800Y43322000D03*
X10559800Y41622000D03*
X10559800Y39922000D03*
X12259800Y43322000D03*
X12259800Y41622000D03*
X12259800Y39922000D03*
X13959800Y43322000D03*
X13959800Y41622000D03*
X13959800Y39922000D03*
%TD*%
D12*
%TO.C,ST2*%
X2540000Y2540000D03*
%TD*%
D11*
%TO.C,JP2*%
X11430000Y17145000D03*
X11430000Y19685000D03*
%TD*%
M02*
