%TF.GenerationSoftware,KiCad,Pcbnew,9.0.7-9.0.7~ubuntu24.04.1*%
%TF.CreationDate,2026-01-23T10:08:47-07:00*%
%TF.ProjectId,SparkFun_Thing_Plus_ESP32_C5_panelized,53706172-6b46-4756-9e5f-5468696e675f,v10*%
%TF.SameCoordinates,Original*%
%TF.FileFunction,Paste,Bot*%
%TF.FilePolarity,Positive*%
%FSLAX46Y46*%
G04 Gerber Fmt 4.6, Leading zero omitted, Abs format (unit mm)*
G04 Created by KiCad (PCBNEW 9.0.7-9.0.7~ubuntu24.04.1) date 2026-01-23 10:08:47*
%MOMM*%
%LPD*%
G01*
G04 APERTURE LIST*
G04 Aperture macros list*
%AMRoundRect*
0 Rectangle with rounded corners*
0 $1 Rounding radius*
0 $2 $3 $4 $5 $6 $7 $8 $9 X,Y pos of 4 corners*
0 Add a 4 corners polygon primitive as box body*
4,1,4,$2,$3,$4,$5,$6,$7,$8,$9,$2,$3,0*
0 Add four circle primitives for the rounded corners*
1,1,$1+$1,$2,$3*
1,1,$1+$1,$4,$5*
1,1,$1+$1,$6,$7*
1,1,$1+$1,$8,$9*
0 Add four rect primitives between the rounded corners*
20,1,$1+$1,$2,$3,$4,$5,0*
20,1,$1+$1,$4,$5,$6,$7,0*
20,1,$1+$1,$6,$7,$8,$9,0*
20,1,$1+$1,$8,$9,$2,$3,0*%
G04 Aperture macros list end*
%ADD10RoundRect,0.200000X-0.275000X0.200000X-0.275000X-0.200000X0.275000X-0.200000X0.275000X0.200000X0*%
%ADD11RoundRect,0.225000X-0.250000X0.225000X-0.250000X-0.225000X0.250000X-0.225000X0.250000X0.225000X0*%
%ADD12RoundRect,0.225000X0.250000X-0.225000X0.250000X0.225000X-0.250000X0.225000X-0.250000X-0.225000X0*%
%ADD13RoundRect,0.225000X-0.225000X-0.250000X0.225000X-0.250000X0.225000X0.250000X-0.225000X0.250000X0*%
%ADD14RoundRect,0.200000X-0.200000X-0.275000X0.200000X-0.275000X0.200000X0.275000X-0.200000X0.275000X0*%
%ADD15RoundRect,0.200000X0.200000X0.275000X-0.200000X0.275000X-0.200000X-0.275000X0.200000X-0.275000X0*%
%ADD16R,0.500000X1.000000*%
%ADD17R,0.950000X1.200000*%
%ADD18RoundRect,0.225000X0.225000X0.250000X-0.225000X0.250000X-0.225000X-0.250000X0.225000X-0.250000X0*%
%ADD19R,0.550000X1.200000*%
G04 APERTURE END LIST*
D10*
%TO.C,R7*%
X83097500Y149780000D03*
X83097500Y148130000D03*
%TD*%
%TO.C,R7*%
X83097500Y88320000D03*
X83097500Y86670000D03*
%TD*%
%TO.C,R7*%
X83097500Y26860000D03*
X83097500Y25210000D03*
%TD*%
%TO.C,R7*%
X59737500Y149780000D03*
X59737500Y148130000D03*
%TD*%
%TO.C,R7*%
X59737500Y88320000D03*
X59737500Y86670000D03*
%TD*%
%TO.C,R7*%
X59737500Y26860000D03*
X59737500Y25210000D03*
%TD*%
%TO.C,R7*%
X36377500Y149780000D03*
X36377500Y148130000D03*
%TD*%
%TO.C,R7*%
X36377500Y88320000D03*
X36377500Y86670000D03*
%TD*%
%TO.C,R7*%
X36377500Y26860000D03*
X36377500Y25210000D03*
%TD*%
%TO.C,R7*%
X13017500Y149780000D03*
X13017500Y148130000D03*
%TD*%
%TO.C,R7*%
X13017500Y88320000D03*
X13017500Y86670000D03*
%TD*%
D11*
%TO.C,C10*%
X86272500Y149730000D03*
X86272500Y148180000D03*
%TD*%
%TO.C,C10*%
X86272500Y88270000D03*
X86272500Y86720000D03*
%TD*%
%TO.C,C10*%
X86272500Y26810000D03*
X86272500Y25260000D03*
%TD*%
%TO.C,C10*%
X62912500Y149730000D03*
X62912500Y148180000D03*
%TD*%
%TO.C,C10*%
X62912500Y88270000D03*
X62912500Y86720000D03*
%TD*%
%TO.C,C10*%
X62912500Y26810000D03*
X62912500Y25260000D03*
%TD*%
%TO.C,C10*%
X39552500Y149730000D03*
X39552500Y148180000D03*
%TD*%
%TO.C,C10*%
X39552500Y88270000D03*
X39552500Y86720000D03*
%TD*%
%TO.C,C10*%
X39552500Y26810000D03*
X39552500Y25260000D03*
%TD*%
%TO.C,C10*%
X16192500Y149730000D03*
X16192500Y148180000D03*
%TD*%
%TO.C,C10*%
X16192500Y88270000D03*
X16192500Y86720000D03*
%TD*%
D12*
%TO.C,C7*%
X78335000Y148180000D03*
X78335000Y149730000D03*
%TD*%
%TO.C,C7*%
X78335000Y86720000D03*
X78335000Y88270000D03*
%TD*%
%TO.C,C7*%
X78335000Y25260000D03*
X78335000Y26810000D03*
%TD*%
%TO.C,C7*%
X54975000Y148180000D03*
X54975000Y149730000D03*
%TD*%
%TO.C,C7*%
X54975000Y86720000D03*
X54975000Y88270000D03*
%TD*%
%TO.C,C7*%
X54975000Y25260000D03*
X54975000Y26810000D03*
%TD*%
%TO.C,C7*%
X31615000Y148180000D03*
X31615000Y149730000D03*
%TD*%
%TO.C,C7*%
X31615000Y86720000D03*
X31615000Y88270000D03*
%TD*%
%TO.C,C7*%
X31615000Y25260000D03*
X31615000Y26810000D03*
%TD*%
%TO.C,C7*%
X8255000Y148180000D03*
X8255000Y149730000D03*
%TD*%
%TO.C,C7*%
X8255000Y86720000D03*
X8255000Y88270000D03*
%TD*%
D10*
%TO.C,R11*%
X81510000Y149780000D03*
X81510000Y148130000D03*
%TD*%
%TO.C,R11*%
X81510000Y88320000D03*
X81510000Y86670000D03*
%TD*%
%TO.C,R11*%
X81510000Y26860000D03*
X81510000Y25210000D03*
%TD*%
%TO.C,R11*%
X58150000Y149780000D03*
X58150000Y148130000D03*
%TD*%
%TO.C,R11*%
X58150000Y88320000D03*
X58150000Y86670000D03*
%TD*%
%TO.C,R11*%
X58150000Y26860000D03*
X58150000Y25210000D03*
%TD*%
%TO.C,R11*%
X34790000Y149780000D03*
X34790000Y148130000D03*
%TD*%
%TO.C,R11*%
X34790000Y88320000D03*
X34790000Y86670000D03*
%TD*%
%TO.C,R11*%
X34790000Y26860000D03*
X34790000Y25210000D03*
%TD*%
%TO.C,R11*%
X11430000Y149780000D03*
X11430000Y148130000D03*
%TD*%
%TO.C,R11*%
X11430000Y88320000D03*
X11430000Y86670000D03*
%TD*%
%TO.C,R9*%
X71667500Y141207500D03*
X71667500Y139557500D03*
%TD*%
%TO.C,R9*%
X71667500Y79747500D03*
X71667500Y78097500D03*
%TD*%
%TO.C,R9*%
X71667500Y18287500D03*
X71667500Y16637500D03*
%TD*%
%TO.C,R9*%
X48307500Y141207500D03*
X48307500Y139557500D03*
%TD*%
%TO.C,R9*%
X48307500Y79747500D03*
X48307500Y78097500D03*
%TD*%
%TO.C,R9*%
X48307500Y18287500D03*
X48307500Y16637500D03*
%TD*%
%TO.C,R9*%
X24947500Y141207500D03*
X24947500Y139557500D03*
%TD*%
%TO.C,R9*%
X24947500Y79747500D03*
X24947500Y78097500D03*
%TD*%
%TO.C,R9*%
X24947500Y18287500D03*
X24947500Y16637500D03*
%TD*%
%TO.C,R9*%
X1587500Y141207500D03*
X1587500Y139557500D03*
%TD*%
%TO.C,R9*%
X1587500Y79747500D03*
X1587500Y78097500D03*
%TD*%
D13*
%TO.C,C2*%
X80100000Y138160000D03*
X81650000Y138160000D03*
%TD*%
%TO.C,C2*%
X80100000Y76700000D03*
X81650000Y76700000D03*
%TD*%
%TO.C,C2*%
X80100000Y15240000D03*
X81650000Y15240000D03*
%TD*%
%TO.C,C2*%
X56740000Y138160000D03*
X58290000Y138160000D03*
%TD*%
%TO.C,C2*%
X56740000Y76700000D03*
X58290000Y76700000D03*
%TD*%
%TO.C,C2*%
X56740000Y15240000D03*
X58290000Y15240000D03*
%TD*%
%TO.C,C2*%
X33380000Y138160000D03*
X34930000Y138160000D03*
%TD*%
%TO.C,C2*%
X33380000Y76700000D03*
X34930000Y76700000D03*
%TD*%
%TO.C,C2*%
X33380000Y15240000D03*
X34930000Y15240000D03*
%TD*%
%TO.C,C2*%
X10020000Y138160000D03*
X11570000Y138160000D03*
%TD*%
%TO.C,C2*%
X10020000Y76700000D03*
X11570000Y76700000D03*
%TD*%
D14*
%TO.C,R1*%
X75605000Y168957500D03*
X77255000Y168957500D03*
%TD*%
%TO.C,R1*%
X75605000Y107497500D03*
X77255000Y107497500D03*
%TD*%
%TO.C,R1*%
X75605000Y46037500D03*
X77255000Y46037500D03*
%TD*%
%TO.C,R1*%
X52245000Y168957500D03*
X53895000Y168957500D03*
%TD*%
%TO.C,R1*%
X52245000Y107497500D03*
X53895000Y107497500D03*
%TD*%
%TO.C,R1*%
X52245000Y46037500D03*
X53895000Y46037500D03*
%TD*%
%TO.C,R1*%
X28885000Y168957500D03*
X30535000Y168957500D03*
%TD*%
%TO.C,R1*%
X28885000Y107497500D03*
X30535000Y107497500D03*
%TD*%
%TO.C,R1*%
X28885000Y46037500D03*
X30535000Y46037500D03*
%TD*%
%TO.C,R1*%
X5525000Y168957500D03*
X7175000Y168957500D03*
%TD*%
%TO.C,R1*%
X5525000Y107497500D03*
X7175000Y107497500D03*
%TD*%
D10*
%TO.C,R10*%
X73572500Y141207500D03*
X73572500Y139557500D03*
%TD*%
%TO.C,R10*%
X73572500Y79747500D03*
X73572500Y78097500D03*
%TD*%
%TO.C,R10*%
X73572500Y18287500D03*
X73572500Y16637500D03*
%TD*%
%TO.C,R10*%
X50212500Y141207500D03*
X50212500Y139557500D03*
%TD*%
%TO.C,R10*%
X50212500Y79747500D03*
X50212500Y78097500D03*
%TD*%
%TO.C,R10*%
X50212500Y18287500D03*
X50212500Y16637500D03*
%TD*%
%TO.C,R10*%
X26852500Y141207500D03*
X26852500Y139557500D03*
%TD*%
%TO.C,R10*%
X26852500Y79747500D03*
X26852500Y78097500D03*
%TD*%
%TO.C,R10*%
X26852500Y18287500D03*
X26852500Y16637500D03*
%TD*%
%TO.C,R10*%
X3492500Y141207500D03*
X3492500Y139557500D03*
%TD*%
%TO.C,R10*%
X3492500Y79747500D03*
X3492500Y78097500D03*
%TD*%
D15*
%TO.C,R4*%
X78525000Y138160000D03*
X76875000Y138160000D03*
%TD*%
%TO.C,R4*%
X78525000Y76700000D03*
X76875000Y76700000D03*
%TD*%
%TO.C,R4*%
X78525000Y15240000D03*
X76875000Y15240000D03*
%TD*%
%TO.C,R4*%
X55165000Y138160000D03*
X53515000Y138160000D03*
%TD*%
%TO.C,R4*%
X55165000Y76700000D03*
X53515000Y76700000D03*
%TD*%
%TO.C,R4*%
X55165000Y15240000D03*
X53515000Y15240000D03*
%TD*%
%TO.C,R4*%
X31805000Y138160000D03*
X30155000Y138160000D03*
%TD*%
%TO.C,R4*%
X31805000Y76700000D03*
X30155000Y76700000D03*
%TD*%
%TO.C,R4*%
X31805000Y15240000D03*
X30155000Y15240000D03*
%TD*%
%TO.C,R4*%
X8445000Y138160000D03*
X6795000Y138160000D03*
%TD*%
%TO.C,R4*%
X8445000Y76700000D03*
X6795000Y76700000D03*
%TD*%
D13*
%TO.C,C1*%
X75655000Y170862500D03*
X77205000Y170862500D03*
%TD*%
%TO.C,C1*%
X75655000Y109402500D03*
X77205000Y109402500D03*
%TD*%
%TO.C,C1*%
X75655000Y47942500D03*
X77205000Y47942500D03*
%TD*%
%TO.C,C1*%
X52295000Y170862500D03*
X53845000Y170862500D03*
%TD*%
%TO.C,C1*%
X52295000Y109402500D03*
X53845000Y109402500D03*
%TD*%
%TO.C,C1*%
X52295000Y47942500D03*
X53845000Y47942500D03*
%TD*%
%TO.C,C1*%
X28935000Y170862500D03*
X30485000Y170862500D03*
%TD*%
%TO.C,C1*%
X28935000Y109402500D03*
X30485000Y109402500D03*
%TD*%
%TO.C,C1*%
X28935000Y47942500D03*
X30485000Y47942500D03*
%TD*%
%TO.C,C1*%
X5575000Y170862500D03*
X7125000Y170862500D03*
%TD*%
%TO.C,C1*%
X5575000Y109402500D03*
X7125000Y109402500D03*
%TD*%
D10*
%TO.C,R14*%
X76747500Y149780000D03*
X76747500Y148130000D03*
%TD*%
%TO.C,R14*%
X76747500Y88320000D03*
X76747500Y86670000D03*
%TD*%
%TO.C,R14*%
X76747500Y26860000D03*
X76747500Y25210000D03*
%TD*%
%TO.C,R14*%
X53387500Y149780000D03*
X53387500Y148130000D03*
%TD*%
%TO.C,R14*%
X53387500Y88320000D03*
X53387500Y86670000D03*
%TD*%
%TO.C,R14*%
X53387500Y26860000D03*
X53387500Y25210000D03*
%TD*%
%TO.C,R14*%
X30027500Y149780000D03*
X30027500Y148130000D03*
%TD*%
%TO.C,R14*%
X30027500Y88320000D03*
X30027500Y86670000D03*
%TD*%
%TO.C,R14*%
X30027500Y26860000D03*
X30027500Y25210000D03*
%TD*%
%TO.C,R14*%
X6667500Y149780000D03*
X6667500Y148130000D03*
%TD*%
%TO.C,R14*%
X6667500Y88320000D03*
X6667500Y86670000D03*
%TD*%
D11*
%TO.C,C9*%
X74842500Y130362500D03*
X74842500Y128812500D03*
%TD*%
%TO.C,C9*%
X74842500Y68902500D03*
X74842500Y67352500D03*
%TD*%
%TO.C,C9*%
X74842500Y7442500D03*
X74842500Y5892500D03*
%TD*%
%TO.C,C9*%
X51482500Y130362500D03*
X51482500Y128812500D03*
%TD*%
%TO.C,C9*%
X51482500Y68902500D03*
X51482500Y67352500D03*
%TD*%
%TO.C,C9*%
X51482500Y7442500D03*
X51482500Y5892500D03*
%TD*%
%TO.C,C9*%
X28122500Y130362500D03*
X28122500Y128812500D03*
%TD*%
%TO.C,C9*%
X28122500Y68902500D03*
X28122500Y67352500D03*
%TD*%
%TO.C,C9*%
X28122500Y7442500D03*
X28122500Y5892500D03*
%TD*%
%TO.C,C9*%
X4762500Y130362500D03*
X4762500Y128812500D03*
%TD*%
%TO.C,C9*%
X4762500Y68902500D03*
X4762500Y67352500D03*
%TD*%
D16*
%TO.C,J4*%
X78295000Y130375000D03*
X79395000Y130375000D03*
X80495000Y130375000D03*
X81245000Y130375000D03*
X82695000Y130375000D03*
X83795000Y130375000D03*
X84895000Y130375000D03*
X85995000Y130375000D03*
X81945000Y130375000D03*
D17*
X87245000Y132125000D03*
X87245000Y136575000D03*
X77045000Y132125000D03*
X77045000Y136575000D03*
%TD*%
D16*
%TO.C,J4*%
X78295000Y68915000D03*
X79395000Y68915000D03*
X80495000Y68915000D03*
X81245000Y68915000D03*
X82695000Y68915000D03*
X83795000Y68915000D03*
X84895000Y68915000D03*
X85995000Y68915000D03*
X81945000Y68915000D03*
D17*
X87245000Y70665000D03*
X87245000Y75115000D03*
X77045000Y70665000D03*
X77045000Y75115000D03*
%TD*%
D16*
%TO.C,J4*%
X78295000Y7455000D03*
X79395000Y7455000D03*
X80495000Y7455000D03*
X81245000Y7455000D03*
X82695000Y7455000D03*
X83795000Y7455000D03*
X84895000Y7455000D03*
X85995000Y7455000D03*
X81945000Y7455000D03*
D17*
X87245000Y9205000D03*
X87245000Y13655000D03*
X77045000Y9205000D03*
X77045000Y13655000D03*
%TD*%
D16*
%TO.C,J4*%
X54935000Y130375000D03*
X56035000Y130375000D03*
X57135000Y130375000D03*
X57885000Y130375000D03*
X59335000Y130375000D03*
X60435000Y130375000D03*
X61535000Y130375000D03*
X62635000Y130375000D03*
X58585000Y130375000D03*
D17*
X63885000Y132125000D03*
X63885000Y136575000D03*
X53685000Y132125000D03*
X53685000Y136575000D03*
%TD*%
D16*
%TO.C,J4*%
X54935000Y68915000D03*
X56035000Y68915000D03*
X57135000Y68915000D03*
X57885000Y68915000D03*
X59335000Y68915000D03*
X60435000Y68915000D03*
X61535000Y68915000D03*
X62635000Y68915000D03*
X58585000Y68915000D03*
D17*
X63885000Y70665000D03*
X63885000Y75115000D03*
X53685000Y70665000D03*
X53685000Y75115000D03*
%TD*%
D16*
%TO.C,J4*%
X54935000Y7455000D03*
X56035000Y7455000D03*
X57135000Y7455000D03*
X57885000Y7455000D03*
X59335000Y7455000D03*
X60435000Y7455000D03*
X61535000Y7455000D03*
X62635000Y7455000D03*
X58585000Y7455000D03*
D17*
X63885000Y9205000D03*
X63885000Y13655000D03*
X53685000Y9205000D03*
X53685000Y13655000D03*
%TD*%
D16*
%TO.C,J4*%
X31575000Y130375000D03*
X32675000Y130375000D03*
X33775000Y130375000D03*
X34525000Y130375000D03*
X35975000Y130375000D03*
X37075000Y130375000D03*
X38175000Y130375000D03*
X39275000Y130375000D03*
X35225000Y130375000D03*
D17*
X40525000Y132125000D03*
X40525000Y136575000D03*
X30325000Y132125000D03*
X30325000Y136575000D03*
%TD*%
D16*
%TO.C,J4*%
X31575000Y68915000D03*
X32675000Y68915000D03*
X33775000Y68915000D03*
X34525000Y68915000D03*
X35975000Y68915000D03*
X37075000Y68915000D03*
X38175000Y68915000D03*
X39275000Y68915000D03*
X35225000Y68915000D03*
D17*
X40525000Y70665000D03*
X40525000Y75115000D03*
X30325000Y70665000D03*
X30325000Y75115000D03*
%TD*%
D16*
%TO.C,J4*%
X31575000Y7455000D03*
X32675000Y7455000D03*
X33775000Y7455000D03*
X34525000Y7455000D03*
X35975000Y7455000D03*
X37075000Y7455000D03*
X38175000Y7455000D03*
X39275000Y7455000D03*
X35225000Y7455000D03*
D17*
X40525000Y9205000D03*
X40525000Y13655000D03*
X30325000Y9205000D03*
X30325000Y13655000D03*
%TD*%
D16*
%TO.C,J4*%
X8215000Y130375000D03*
X9315000Y130375000D03*
X10415000Y130375000D03*
X11165000Y130375000D03*
X12615000Y130375000D03*
X13715000Y130375000D03*
X14815000Y130375000D03*
X15915000Y130375000D03*
X11865000Y130375000D03*
D17*
X17165000Y132125000D03*
X17165000Y136575000D03*
X6965000Y132125000D03*
X6965000Y136575000D03*
%TD*%
D16*
%TO.C,J4*%
X8215000Y68915000D03*
X9315000Y68915000D03*
X10415000Y68915000D03*
X11165000Y68915000D03*
X12615000Y68915000D03*
X13715000Y68915000D03*
X14815000Y68915000D03*
X15915000Y68915000D03*
X11865000Y68915000D03*
D17*
X17165000Y70665000D03*
X17165000Y75115000D03*
X6965000Y70665000D03*
X6965000Y75115000D03*
%TD*%
D18*
%TO.C,C3*%
X78475000Y143875000D03*
X76925000Y143875000D03*
%TD*%
%TO.C,C3*%
X78475000Y82415000D03*
X76925000Y82415000D03*
%TD*%
%TO.C,C3*%
X78475000Y20955000D03*
X76925000Y20955000D03*
%TD*%
%TO.C,C3*%
X55115000Y143875000D03*
X53565000Y143875000D03*
%TD*%
%TO.C,C3*%
X55115000Y82415000D03*
X53565000Y82415000D03*
%TD*%
%TO.C,C3*%
X55115000Y20955000D03*
X53565000Y20955000D03*
%TD*%
%TO.C,C3*%
X31755000Y143875000D03*
X30205000Y143875000D03*
%TD*%
%TO.C,C3*%
X31755000Y82415000D03*
X30205000Y82415000D03*
%TD*%
%TO.C,C3*%
X31755000Y20955000D03*
X30205000Y20955000D03*
%TD*%
%TO.C,C3*%
X8395000Y143875000D03*
X6845000Y143875000D03*
%TD*%
%TO.C,C3*%
X8395000Y82415000D03*
X6845000Y82415000D03*
%TD*%
D19*
%TO.C,U2*%
X78650000Y139717400D03*
X77700000Y139717400D03*
X76750000Y139717400D03*
X76750000Y142317600D03*
X78650000Y142317600D03*
%TD*%
%TO.C,U2*%
X78650000Y78257400D03*
X77700000Y78257400D03*
X76750000Y78257400D03*
X76750000Y80857600D03*
X78650000Y80857600D03*
%TD*%
%TO.C,U2*%
X78650000Y16797400D03*
X77700000Y16797400D03*
X76750000Y16797400D03*
X76750000Y19397600D03*
X78650000Y19397600D03*
%TD*%
%TO.C,U2*%
X55290000Y139717400D03*
X54340000Y139717400D03*
X53390000Y139717400D03*
X53390000Y142317600D03*
X55290000Y142317600D03*
%TD*%
%TO.C,U2*%
X55290000Y78257400D03*
X54340000Y78257400D03*
X53390000Y78257400D03*
X53390000Y80857600D03*
X55290000Y80857600D03*
%TD*%
%TO.C,U2*%
X55290000Y16797400D03*
X54340000Y16797400D03*
X53390000Y16797400D03*
X53390000Y19397600D03*
X55290000Y19397600D03*
%TD*%
%TO.C,U2*%
X31930000Y139717400D03*
X30980000Y139717400D03*
X30030000Y139717400D03*
X30030000Y142317600D03*
X31930000Y142317600D03*
%TD*%
%TO.C,U2*%
X31930000Y78257400D03*
X30980000Y78257400D03*
X30030000Y78257400D03*
X30030000Y80857600D03*
X31930000Y80857600D03*
%TD*%
%TO.C,U2*%
X31930000Y16797400D03*
X30980000Y16797400D03*
X30030000Y16797400D03*
X30030000Y19397600D03*
X31930000Y19397600D03*
%TD*%
%TO.C,U2*%
X8570000Y139717400D03*
X7620000Y139717400D03*
X6670000Y139717400D03*
X6670000Y142317600D03*
X8570000Y142317600D03*
%TD*%
%TO.C,U2*%
X8570000Y78257400D03*
X7620000Y78257400D03*
X6670000Y78257400D03*
X6670000Y80857600D03*
X8570000Y80857600D03*
%TD*%
D10*
%TO.C,R8*%
X84685000Y149780000D03*
X84685000Y148130000D03*
%TD*%
%TO.C,R8*%
X84685000Y88320000D03*
X84685000Y86670000D03*
%TD*%
%TO.C,R8*%
X84685000Y26860000D03*
X84685000Y25210000D03*
%TD*%
%TO.C,R8*%
X61325000Y149780000D03*
X61325000Y148130000D03*
%TD*%
%TO.C,R8*%
X61325000Y88320000D03*
X61325000Y86670000D03*
%TD*%
%TO.C,R8*%
X61325000Y26860000D03*
X61325000Y25210000D03*
%TD*%
%TO.C,R8*%
X37965000Y149780000D03*
X37965000Y148130000D03*
%TD*%
%TO.C,R8*%
X37965000Y88320000D03*
X37965000Y86670000D03*
%TD*%
%TO.C,R8*%
X37965000Y26860000D03*
X37965000Y25210000D03*
%TD*%
%TO.C,R8*%
X14605000Y149780000D03*
X14605000Y148130000D03*
%TD*%
%TO.C,R8*%
X14605000Y88320000D03*
X14605000Y86670000D03*
%TD*%
D12*
%TO.C,C6*%
X79922500Y148180000D03*
X79922500Y149730000D03*
%TD*%
%TO.C,C6*%
X79922500Y86720000D03*
X79922500Y88270000D03*
%TD*%
%TO.C,C6*%
X79922500Y25260000D03*
X79922500Y26810000D03*
%TD*%
%TO.C,C6*%
X56562500Y148180000D03*
X56562500Y149730000D03*
%TD*%
%TO.C,C6*%
X56562500Y86720000D03*
X56562500Y88270000D03*
%TD*%
%TO.C,C6*%
X56562500Y25260000D03*
X56562500Y26810000D03*
%TD*%
%TO.C,C6*%
X33202500Y148180000D03*
X33202500Y149730000D03*
%TD*%
%TO.C,C6*%
X33202500Y86720000D03*
X33202500Y88270000D03*
%TD*%
%TO.C,C6*%
X33202500Y25260000D03*
X33202500Y26810000D03*
%TD*%
%TO.C,C6*%
X9842500Y148180000D03*
X9842500Y149730000D03*
%TD*%
%TO.C,C6*%
X9842500Y86720000D03*
X9842500Y88270000D03*
%TD*%
%TO.C,C6*%
X9842500Y25260000D03*
X9842500Y26810000D03*
%TD*%
D10*
%TO.C,R8*%
X14605000Y26860000D03*
X14605000Y25210000D03*
%TD*%
D19*
%TO.C,U2*%
X8570000Y16797400D03*
X7620000Y16797400D03*
X6670000Y16797400D03*
X6670000Y19397600D03*
X8570000Y19397600D03*
%TD*%
D18*
%TO.C,C3*%
X8395000Y20955000D03*
X6845000Y20955000D03*
%TD*%
D16*
%TO.C,J4*%
X8215000Y7455000D03*
X9315000Y7455000D03*
X10415000Y7455000D03*
X11165000Y7455000D03*
X12615000Y7455000D03*
X13715000Y7455000D03*
X14815000Y7455000D03*
X15915000Y7455000D03*
X11865000Y7455000D03*
D17*
X17165000Y9205000D03*
X17165000Y13655000D03*
X6965000Y9205000D03*
X6965000Y13655000D03*
%TD*%
D11*
%TO.C,C9*%
X4762500Y7442500D03*
X4762500Y5892500D03*
%TD*%
D10*
%TO.C,R14*%
X6667500Y26860000D03*
X6667500Y25210000D03*
%TD*%
D13*
%TO.C,C1*%
X5575000Y47942500D03*
X7125000Y47942500D03*
%TD*%
D15*
%TO.C,R4*%
X8445000Y15240000D03*
X6795000Y15240000D03*
%TD*%
D10*
%TO.C,R10*%
X3492500Y18287500D03*
X3492500Y16637500D03*
%TD*%
D14*
%TO.C,R1*%
X5525000Y46037500D03*
X7175000Y46037500D03*
%TD*%
D13*
%TO.C,C2*%
X10020000Y15240000D03*
X11570000Y15240000D03*
%TD*%
D10*
%TO.C,R9*%
X1587500Y18287500D03*
X1587500Y16637500D03*
%TD*%
%TO.C,R11*%
X11430000Y26860000D03*
X11430000Y25210000D03*
%TD*%
D12*
%TO.C,C7*%
X8255000Y25260000D03*
X8255000Y26810000D03*
%TD*%
D11*
%TO.C,C10*%
X16192500Y26810000D03*
X16192500Y25260000D03*
%TD*%
D10*
%TO.C,R7*%
X13017500Y26860000D03*
X13017500Y25210000D03*
%TD*%
M02*
